<svg xmlns="http://www.w3.org/2000/svg" width="375" viewBox="0 0 375 75" height="75" version="1.0"><g><g><g><path d="M 14.023438 0 C 15.128906 0 16.234375 -0.164062 17.335938 -0.496094 C 18.441406 -0.828125 19.4375 -1.4375 20.320312 -2.207031 L 20.320312 -17.335938 L 14.964844 -16.011719 L 14.964844 -2.871094 C 14.632812 -2.707031 14.300781 -2.648438 13.96875 -2.648438 C 13.085938 -2.648438 12.367188 -3.035156 11.816406 -3.863281 C 11.207031 -4.636719 10.710938 -5.578125 10.378906 -6.679688 C 9.828125 -8.335938 9.441406 -10.324219 9.222656 -12.699219 C 8.945312 -15.019531 8.835938 -17.449219 8.835938 -19.988281 C 8.835938 -22.527344 8.945312 -24.957031 9.222656 -27.277344 C 9.441406 -29.59375 9.828125 -31.636719 10.378906 -33.292969 C 10.765625 -34.507812 11.265625 -35.503906 11.871094 -36.164062 C 12.480469 -36.828125 13.140625 -37.160156 13.804688 -37.160156 C 14.300781 -37.160156 14.796875 -36.882812 15.292969 -36.441406 C 15.792969 -35.945312 16.234375 -35.171875 16.675781 -34.179688 L 16.675781 -39.535156 C 16.121094 -39.699219 15.625 -39.808594 15.183594 -39.863281 C 14.742188 -39.863281 14.300781 -39.921875 13.96875 -39.921875 C 9.773438 -39.921875 6.625 -38.265625 4.636719 -35.0625 C 2.648438 -31.804688 1.65625 -26.777344 1.65625 -19.988281 C 1.65625 -17.449219 1.820312 -15.019531 2.152344 -12.644531 C 2.484375 -10.214844 3.148438 -8.117188 4.085938 -6.238281 C 5.023438 -4.363281 6.292969 -2.816406 7.894531 -1.710938 C 9.441406 -0.550781 11.484375 0 14.023438 0 Z M 14.023438 0" transform="translate(19.767 58.004)"/></g></g></g><g><g><g><path d="M 10.214844 0 C 11.320312 0 12.3125 -0.164062 13.308594 -0.496094 C 14.300781 -0.828125 15.128906 -1.324219 15.847656 -1.988281 C 16.566406 -2.648438 17.117188 -3.480469 17.558594 -4.472656 C 18 -5.464844 18.222656 -6.679688 18.222656 -8.007812 L 18.222656 -39.976562 L 12.863281 -39.976562 L 12.863281 -8.007812 C 12.863281 -7.621094 12.808594 -7.179688 12.808594 -6.734375 C 12.753906 -6.292969 12.644531 -5.851562 12.480469 -5.410156 C 12.3125 -4.96875 12.035156 -4.636719 11.707031 -4.363281 C 11.375 -4.085938 10.878906 -3.976562 10.214844 -3.976562 C 9.550781 -3.976562 9 -4.085938 8.667969 -4.363281 C 8.28125 -4.636719 8.007812 -4.96875 7.839844 -5.410156 C 7.675781 -5.851562 7.566406 -6.292969 7.566406 -6.734375 C 7.566406 -7.179688 7.566406 -7.621094 7.566406 -8.007812 L 7.566406 -39.976562 L 2.207031 -39.976562 L 2.207031 -8.007812 C 2.207031 -6.679688 2.375 -5.464844 2.816406 -4.472656 C 3.257812 -3.480469 3.808594 -2.648438 4.527344 -1.988281 C 5.246094 -1.324219 6.074219 -0.828125 7.066406 -0.496094 C 8.0625 -0.164062 9.109375 0 10.214844 0 Z M 10.214844 0" transform="translate(43.396 58.004)"/></g></g></g><g><g><g><path d="M 3.035156 -39.976562 L 3.035156 0 L 8.394531 0 L 8.394531 -39.976562 Z M 3.035156 -39.976562" transform="translate(64.927 58.004)"/></g></g></g><g><g><g><path d="M 3.035156 -39.976562 L 3.035156 0 L 15.019531 0 L 15.019531 -2.648438 L 8.394531 -2.648438 L 8.394531 -39.976562 Z M 3.035156 -39.976562" transform="translate(77.46 58.004)"/></g></g></g><g><g><g><path d="M 3.035156 -39.976562 L 3.035156 0 L 8.394531 0 L 8.394531 -17.335938 L 13.691406 -17.335938 L 13.691406 0 L 19.050781 0 L 19.050781 -39.976562 L 13.691406 -39.976562 L 13.691406 -19.988281 L 8.394531 -19.988281 L 8.394531 -39.976562 Z M 3.035156 -39.976562" transform="translate(95.236 58.004)"/></g></g></g><g><g><g><path d="M 3.035156 -39.976562 L 3.035156 0 L 15.019531 0 L 15.019531 -2.648438 L 8.394531 -2.648438 L 8.394531 -17.335938 L 12.367188 -17.335938 L 13.691406 -19.988281 L 8.394531 -19.988281 L 8.394531 -37.324219 L 13.691406 -37.324219 L 15.019531 -39.976562 Z M 3.035156 -39.976562" transform="translate(118.423 58.004)"/></g></g></g><g><g><g><path d="M 3.535156 -35.945312 L 3.535156 0 L 8.890625 0 L 8.890625 -16.011719 L 10.324219 -16.011719 L 14.191406 0 L 19.546875 0 L 15.351562 -17.394531 C 16.730469 -18.222656 17.777344 -19.492188 18.496094 -21.148438 C 19.160156 -22.804688 19.546875 -25.121094 19.546875 -27.992188 C 19.546875 -30.203125 19.324219 -32.136719 18.882812 -33.679688 C 18.441406 -35.226562 17.722656 -36.441406 16.839844 -37.378906 C 15.957031 -38.265625 14.851562 -38.925781 13.527344 -39.367188 C 12.203125 -39.753906 10.65625 -39.976562 8.890625 -39.976562 L 2.207031 -39.976562 Z M 8.890625 -19.269531 L 8.890625 -36.664062 C 9.882812 -36.664062 10.710938 -36.386719 11.375 -35.890625 C 12.035156 -35.335938 12.535156 -34.675781 12.921875 -33.902344 C 13.25 -33.074219 13.527344 -32.136719 13.691406 -31.140625 C 13.804688 -30.09375 13.914062 -29.042969 13.914062 -27.992188 C 13.914062 -26.890625 13.804688 -25.785156 13.691406 -24.792969 C 13.527344 -23.742188 13.25 -22.804688 12.921875 -22.03125 C 12.535156 -21.203125 12.035156 -20.539062 11.375 -20.042969 C 10.710938 -19.546875 9.882812 -19.269531 8.890625 -19.269531 Z M 8.890625 -19.269531" transform="translate(136.2 58.004)"/></g></g></g><g><g><g><path d="M 3.535156 -35.945312 L 3.535156 0 L 6.183594 0 L 6.183594 -27.992188 L 12.863281 -8.007812 L 15.515625 -8.007812 L 22.195312 -27.992188 L 22.195312 0 L 27.496094 0 L 27.496094 -39.976562 L 23.523438 -39.976562 L 22.195312 -35.945312 L 15.515625 -16.011719 L 7.507812 -39.976562 L 2.207031 -39.976562 Z M 3.535156 -35.945312" transform="translate(159.056 58.004)"/></g></g></g><g><g><g><path d="M 3.035156 -39.976562 L 3.035156 0 L 15.019531 0 L 15.019531 -2.648438 L 8.394531 -2.648438 L 8.394531 -17.335938 L 12.367188 -17.335938 L 13.691406 -19.988281 L 8.394531 -19.988281 L 8.394531 -37.324219 L 13.691406 -37.324219 L 15.019531 -39.976562 Z M 3.035156 -39.976562" transform="translate(190.69 58.004)"/></g></g></g><g><g><g><path d="M 3.535156 -37.324219 L 3.535156 0 L 8.890625 0 C 15.957031 0 19.546875 -6.679688 19.546875 -19.988281 C 19.546875 -33.238281 15.957031 -39.921875 8.890625 -39.976562 L 2.207031 -39.976562 Z M 8.890625 -3.257812 L 8.890625 -36.664062 C 10.601562 -36.550781 11.871094 -35.226562 12.753906 -32.632812 C 13.636719 -29.980469 14.078125 -25.785156 14.078125 -19.988281 C 14.078125 -14.136719 13.636719 -9.9375 12.753906 -7.34375 C 11.871094 -4.691406 10.601562 -3.367188 8.890625 -3.257812 Z M 8.890625 -3.257812" transform="translate(220.613 58.004)"/></g></g></g><g><g><g><path d="M 12.3125 0 C 14.6875 0 16.566406 -0.550781 18 -1.765625 C 19.4375 -2.925781 20.484375 -4.472656 21.257812 -6.351562 C 21.976562 -8.226562 22.417969 -10.378906 22.636719 -12.808594 C 22.859375 -15.183594 22.96875 -17.558594 22.96875 -19.988281 C 22.96875 -22.363281 22.859375 -24.734375 22.636719 -27.109375 C 22.417969 -29.484375 21.976562 -31.636719 21.257812 -33.570312 C 20.484375 -35.449219 19.4375 -36.992188 18 -38.207031 C 16.566406 -39.367188 14.6875 -39.976562 12.3125 -39.976562 C 9.882812 -39.976562 8.007812 -39.367188 6.570312 -38.207031 C 5.136719 -36.992188 4.085938 -35.449219 3.367188 -33.570312 C 2.59375 -31.636719 2.152344 -29.484375 1.933594 -27.109375 C 1.710938 -24.734375 1.65625 -22.363281 1.65625 -19.988281 C 1.65625 -17.558594 1.710938 -15.183594 1.933594 -12.808594 C 2.152344 -10.378906 2.59375 -8.226562 3.367188 -6.351562 C 4.085938 -4.472656 5.136719 -2.925781 6.570312 -1.765625 C 8.007812 -0.550781 9.882812 0 12.3125 0 Z M 12.3125 -2.648438 C 11.429688 -2.648438 10.710938 -3.148438 10.105469 -4.140625 C 9.441406 -5.136719 8.945312 -6.40625 8.558594 -8.0625 C 8.117188 -9.664062 7.839844 -11.484375 7.621094 -13.582031 C 7.398438 -15.679688 7.289062 -17.777344 7.289062 -19.988281 C 7.289062 -22.140625 7.398438 -24.238281 7.621094 -26.335938 C 7.839844 -28.4375 8.117188 -30.257812 8.558594 -31.914062 C 8.945312 -33.515625 9.441406 -34.839844 10.105469 -35.835938 C 10.710938 -36.828125 11.429688 -37.324219 12.3125 -37.324219 C 13.140625 -37.324219 13.859375 -36.828125 14.523438 -35.835938 C 15.128906 -34.839844 15.625 -33.515625 16.066406 -31.914062 C 16.507812 -30.257812 16.785156 -28.4375 17.007812 -26.335938 C 17.226562 -24.238281 17.335938 -22.140625 17.335938 -19.988281 C 17.335938 -17.777344 17.226562 -15.679688 17.007812 -13.582031 C 16.785156 -11.484375 16.507812 -9.664062 16.066406 -8.0625 C 15.625 -6.40625 15.128906 -5.136719 14.523438 -4.140625 C 13.859375 -3.148438 13.140625 -2.648438 12.3125 -2.648438 Z M 12.3125 -2.648438" transform="translate(242.917 58.004)"/></g></g></g><g><g><g><path d="M 3.535156 -35.945312 L 3.535156 0 L 8.890625 0 L 8.890625 -16.011719 L 10.324219 -16.011719 L 14.191406 0 L 19.546875 0 L 15.351562 -17.394531 C 16.730469 -18.222656 17.777344 -19.492188 18.496094 -21.148438 C 19.160156 -22.804688 19.546875 -25.121094 19.546875 -27.992188 C 19.546875 -30.203125 19.324219 -32.136719 18.882812 -33.679688 C 18.441406 -35.226562 17.722656 -36.441406 16.839844 -37.378906 C 15.957031 -38.265625 14.851562 -38.925781 13.527344 -39.367188 C 12.203125 -39.753906 10.65625 -39.976562 8.890625 -39.976562 L 2.207031 -39.976562 Z M 8.890625 -19.269531 L 8.890625 -36.664062 C 9.882812 -36.664062 10.710938 -36.386719 11.375 -35.890625 C 12.035156 -35.335938 12.535156 -34.675781 12.921875 -33.902344 C 13.25 -33.074219 13.527344 -32.136719 13.691406 -31.140625 C 13.804688 -30.09375 13.914062 -29.042969 13.914062 -27.992188 C 13.914062 -26.890625 13.804688 -25.785156 13.691406 -24.792969 C 13.527344 -23.742188 13.25 -22.804688 12.921875 -22.03125 C 12.535156 -21.203125 12.035156 -20.539062 11.375 -20.042969 C 10.710938 -19.546875 9.882812 -19.269531 8.890625 -19.269531 Z M 8.890625 -19.269531" transform="translate(268.643 58.004)"/></g></g></g><g><g><g><path d="M 12.3125 0 C 14.6875 0 16.566406 -0.550781 18 -1.765625 C 19.4375 -2.925781 20.484375 -4.472656 21.257812 -6.351562 C 21.976562 -8.226562 22.417969 -10.378906 22.636719 -12.808594 C 22.859375 -15.183594 22.96875 -17.558594 22.96875 -19.988281 C 22.96875 -22.363281 22.859375 -24.734375 22.636719 -27.109375 C 22.417969 -29.484375 21.976562 -31.636719 21.257812 -33.570312 C 20.484375 -35.449219 19.4375 -36.992188 18 -38.207031 C 16.566406 -39.367188 14.6875 -39.976562 12.3125 -39.976562 C 9.882812 -39.976562 8.007812 -39.367188 6.570312 -38.207031 C 5.136719 -36.992188 4.085938 -35.449219 3.367188 -33.570312 C 2.59375 -31.636719 2.152344 -29.484375 1.933594 -27.109375 C 1.710938 -24.734375 1.65625 -22.363281 1.65625 -19.988281 C 1.65625 -17.558594 1.710938 -15.183594 1.933594 -12.808594 C 2.152344 -10.378906 2.59375 -8.226562 3.367188 -6.351562 C 4.085938 -4.472656 5.136719 -2.925781 6.570312 -1.765625 C 8.007812 -0.550781 9.882812 0 12.3125 0 Z M 12.3125 -2.648438 C 11.429688 -2.648438 10.710938 -3.148438 10.105469 -4.140625 C 9.441406 -5.136719 8.945312 -6.40625 8.558594 -8.0625 C 8.117188 -9.664062 7.839844 -11.484375 7.621094 -13.582031 C 7.398438 -15.679688 7.289062 -17.777344 7.289062 -19.988281 C 7.289062 -22.140625 7.398438 -24.238281 7.621094 -26.335938 C 7.839844 -28.4375 8.117188 -30.257812 8.558594 -31.914062 C 8.945312 -33.515625 9.441406 -34.839844 10.105469 -35.835938 C 10.710938 -36.828125 11.429688 -37.324219 12.3125 -37.324219 C 13.140625 -37.324219 13.859375 -36.828125 14.523438 -35.835938 C 15.128906 -34.839844 15.625 -33.515625 16.066406 -31.914062 C 16.507812 -30.257812 16.785156 -28.4375 17.007812 -26.335938 C 17.226562 -24.238281 17.335938 -22.140625 17.335938 -19.988281 C 17.335938 -17.777344 17.226562 -15.679688 17.007812 -13.582031 C 16.785156 -11.484375 16.507812 -9.664062 16.066406 -8.0625 C 15.625 -6.40625 15.128906 -5.136719 14.523438 -4.140625 C 13.859375 -3.148438 13.140625 -2.648438 12.3125 -2.648438 Z M 12.3125 -2.648438" transform="translate(291.5 58.004)"/></g></g></g><g><g><g><path d="M 1.105469 -39.976562 L 7.785156 0 L 13.085938 0 L 17.777344 -27.992188 L 22.417969 0 L 27.773438 0 L 34.398438 -39.976562 L 31.75 -39.976562 L 26.394531 -8.007812 L 21.09375 -39.976562 L 15.734375 -39.976562 L 16.398438 -35.945312 L 11.761719 -8.007812 L 6.460938 -39.976562 Z M 1.105469 -39.976562" transform="translate(317.226 58.004)"/></g></g></g></svg>