<svg xmlns="http://www.w3.org/2000/svg" width="375" viewBox="0 0 375 375" height="375" version="1.0"><defs><clipPath id="a"><path d="M 44.46875 43.996094 L 333 43.996094 L 333 332.582031 L 44.46875 332.582031 Z M 44.46875 43.996094"/></clipPath><clipPath id="b"><path d="M 244 237 L 368 237 L 368 319 L 244 319 Z M 244 237"/></clipPath><clipPath id="c"><path d="M 278.574219 212.132812 L 383.546875 246.410156 L 348.816406 352.78125 L 243.84375 318.507812 Z M 278.574219 212.132812"/></clipPath><clipPath id="d"><path d="M 278.574219 212.132812 L 383.546875 246.410156 L 348.816406 352.78125 L 243.84375 318.507812 Z M 278.574219 212.132812"/></clipPath><clipPath id="e"><path d="M 321 282 L 331 282 L 331 292 L 321 292 Z M 321 282"/></clipPath><clipPath id="f"><path d="M 278.574219 212.132812 L 383.546875 246.410156 L 348.816406 352.78125 L 243.84375 318.507812 Z M 278.574219 212.132812"/></clipPath><clipPath id="g"><path d="M 278.574219 212.132812 L 383.546875 246.410156 L 348.816406 352.78125 L 243.84375 318.507812 Z M 278.574219 212.132812"/></clipPath><clipPath id="h"><path d="M 335 247 L 338 247 L 338 256 L 335 256 Z M 335 247"/></clipPath><clipPath id="i"><path d="M 278.574219 212.132812 L 383.546875 246.410156 L 348.816406 352.78125 L 243.84375 318.507812 Z M 278.574219 212.132812"/></clipPath><clipPath id="j"><path d="M 278.574219 212.132812 L 383.546875 246.410156 L 348.816406 352.78125 L 243.84375 318.507812 Z M 278.574219 212.132812"/></clipPath><clipPath id="k"><path d="M 286 269 L 289 269 L 289 276 L 286 276 Z M 286 269"/></clipPath><clipPath id="l"><path d="M 278.574219 212.132812 L 383.546875 246.410156 L 348.816406 352.78125 L 243.84375 318.507812 Z M 278.574219 212.132812"/></clipPath><clipPath id="m"><path d="M 278.574219 212.132812 L 383.546875 246.410156 L 348.816406 352.78125 L 243.84375 318.507812 Z M 278.574219 212.132812"/></clipPath><clipPath id="n"><path d="M 291 297 L 296 297 L 296 300 L 291 300 Z M 291 297"/></clipPath><clipPath id="o"><path d="M 278.574219 212.132812 L 383.546875 246.410156 L 348.816406 352.78125 L 243.84375 318.507812 Z M 278.574219 212.132812"/></clipPath><clipPath id="p"><path d="M 278.574219 212.132812 L 383.546875 246.410156 L 348.816406 352.78125 L 243.84375 318.507812 Z M 278.574219 212.132812"/></clipPath><clipPath id="q"><path d="M 179 301 L 305 301 L 305 368 L 179 368 Z M 179 301"/></clipPath><clipPath id="r"><path d="M 253.582031 261.132812 L 323.5 334.839844 L 248.722656 405.769531 L 178.804688 332.0625 Z M 253.582031 261.132812"/></clipPath><clipPath id="s"><path d="M 253.582031 261.132812 L 323.5 334.839844 L 248.722656 405.769531 L 178.804688 332.0625 Z M 253.582031 261.132812"/></clipPath><clipPath id="t"><path d="M 257 337 L 262 337 L 262 349 L 257 349 Z M 257 337"/></clipPath><clipPath id="u"><path d="M 253.582031 261.132812 L 323.5 334.839844 L 248.722656 405.769531 L 178.804688 332.0625 Z M 253.582031 261.132812"/></clipPath><clipPath id="v"><path d="M 253.582031 261.132812 L 323.5 334.839844 L 248.722656 405.769531 L 178.804688 332.0625 Z M 253.582031 261.132812"/></clipPath><clipPath id="w"><path d="M 280 315 L 286 315 L 286 322 L 280 322 Z M 280 315"/></clipPath><clipPath id="x"><path d="M 253.582031 261.132812 L 323.5 334.839844 L 248.722656 405.769531 L 178.804688 332.0625 Z M 253.582031 261.132812"/></clipPath><clipPath id="y"><path d="M 253.582031 261.132812 L 323.5 334.839844 L 248.722656 405.769531 L 178.804688 332.0625 Z M 253.582031 261.132812"/></clipPath><clipPath id="z"><path d="M 233 310 L 236 310 L 236 317 L 233 317 Z M 233 310"/></clipPath><clipPath id="A"><path d="M 253.582031 261.132812 L 323.5 334.839844 L 248.722656 405.769531 L 178.804688 332.0625 Z M 253.582031 261.132812"/></clipPath><clipPath id="B"><path d="M 253.582031 261.132812 L 323.5 334.839844 L 248.722656 405.769531 L 178.804688 332.0625 Z M 253.582031 261.132812"/></clipPath><clipPath id="C"><path d="M 225 336 L 230 336 L 230 339 L 225 339 Z M 225 336"/></clipPath><clipPath id="D"><path d="M 253.582031 261.132812 L 323.5 334.839844 L 248.722656 405.769531 L 178.804688 332.0625 Z M 253.582031 261.132812"/></clipPath><clipPath id="E"><path d="M 253.582031 261.132812 L 323.5 334.839844 L 248.722656 405.769531 L 178.804688 332.0625 Z M 253.582031 261.132812"/></clipPath><clipPath id="F"><path d="M 137 122 L 238 122 L 238 262.65625 L 137 262.65625 Z M 137 122"/></clipPath><clipPath id="G"><path d="M 119.574219 169 L 131 169 L 131 173 L 119.574219 173 Z M 119.574219 169"/></clipPath><clipPath id="H"><path d="M 244 169 L 255.324219 169 L 255.324219 173 L 244 173 Z M 244 169"/></clipPath></defs><g clip-path="url(#a)"><path d="M 188.710938 332.582031 C 109.214844 332.582031 44.46875 267.832031 44.46875 188.242188 C 44.46875 108.648438 109.214844 43.996094 188.710938 43.996094 C 268.207031 43.996094 332.953125 108.746094 332.953125 188.242188 C 333.050781 267.832031 268.304688 332.582031 188.710938 332.582031 Z M 188.710938 46.4375 C 110.484375 46.4375 46.910156 110.015625 46.910156 188.242188 C 46.910156 266.464844 110.582031 330.140625 188.710938 330.140625 C 266.839844 330.140625 330.609375 266.464844 330.609375 188.242188 C 330.609375 110.015625 266.9375 46.4375 188.710938 46.4375 Z M 188.710938 46.4375"/></g><g clip-path="url(#b)"><g clip-path="url(#c)"><g clip-path="url(#d)"><path fill="#3E6913" d="M 367.039062 293.453125 C 366.660156 293.160156 366.253906 292.917969 365.816406 292.726562 C 361.582031 290.898438 357.867188 288.199219 353.988281 285.765625 C 350.335938 283.472656 346.582031 281.371094 342.5 279.902344 C 337.261719 278.015625 331.953125 276.601562 326.292969 276.871094 C 322.09375 277.0625 317.988281 277.570312 314.027344 279.035156 C 312.5625 279.574219 311.09375 280.09375 309.617188 280.617188 C 309.480469 280.234375 309.6875 280.011719 309.871094 279.839844 C 312.023438 277.714844 313.902344 275.359375 315.703125 272.941406 C 316.003906 272.5625 316.351562 272.238281 316.75 271.972656 C 317.761719 271.253906 318.84375 270.671875 319.996094 270.222656 C 321.65625 269.578125 323.347656 269.027344 325.070312 268.574219 C 328.117188 267.769531 331.050781 266.652344 333.863281 265.226562 C 337.628906 263.304688 341.03125 260.941406 343.414062 257.34375 C 346.367188 252.882812 349.792969 248.769531 353.003906 244.507812 C 353.855469 243.34375 354.648438 242.140625 355.378906 240.898438 C 355.734375 240.308594 356 239.683594 356.167969 239.015625 C 356.390625 238.113281 355.867188 237.378906 354.972656 237.179688 C 354.570312 237.089844 354.164062 237.054688 353.753906 237.078125 C 352.65625 237.105469 351.570312 237.234375 350.5 237.460938 C 348.96875 237.824219 347.417969 238.101562 345.886719 238.460938 C 339.992188 239.832031 334.613281 242.199219 330.253906 246.574219 C 327.933594 248.902344 325.585938 251.195312 323.339844 253.59375 C 320.476562 256.636719 318.632812 260.144531 318.027344 264.265625 C 317.734375 266.328125 317.019531 268.234375 315.886719 269.984375 C 315.292969 270.90625 314.679688 271.816406 314.042969 272.707031 C 311.359375 276.460938 308.128906 279.710938 304.695312 282.769531 C 302.996094 284.285156 301.113281 285.511719 299.042969 286.460938 C 298.484375 286.71875 297.941406 287.011719 297.382812 287.261719 C 295.070312 288.292969 292.8125 289.445312 290.375 290.175781 C 288.898438 290.621094 288.453125 290.621094 286.882812 290.144531 C 286.929688 289.585938 287.429688 289.390625 287.761719 289.082031 C 289.308594 287.65625 290.621094 286.039062 291.703125 284.234375 C 292.785156 282.429688 293.589844 280.507812 294.121094 278.46875 C 295.183594 274.429688 296.59375 270.488281 297.863281 266.511719 C 298.527344 264.492188 299.289062 262.511719 300.15625 260.570312 C 301.257812 258.0625 302.359375 255.546875 303.179688 252.929688 C 303.382812 252.34375 303.53125 251.75 303.621094 251.140625 C 303.761719 249.96875 303.074219 249.324219 301.894531 249.484375 C 301.421875 249.566406 300.964844 249.691406 300.515625 249.859375 C 299.59375 250.160156 298.785156 250.695312 298 251.230469 C 295.910156 252.664062 293.832031 254.105469 291.765625 255.566406 C 290.875 256.199219 290.003906 256.871094 289.179688 257.585938 C 285.042969 261.144531 281.882812 265.355469 280.335938 270.6875 C 278.824219 275.910156 277.679688 281.171875 278.039062 286.65625 C 278.089844 287.339844 278.101562 288.023438 278.078125 288.707031 C 278.011719 290.28125 277.902344 291.847656 277.308594 293.34375 C 276.953125 294.34375 276.328125 295.132812 275.429688 295.703125 C 273.925781 296.648438 272.457031 297.65625 270.957031 298.605469 C 269.914062 299.265625 268.832031 299.859375 267.792969 300.507812 C 267.597656 300.625 267.484375 300.796875 267.457031 301.027344 C 264.003906 302.664062 260.695312 304.558594 257.535156 306.707031 C 252.917969 309.808594 247.949219 313.328125 244.363281 317.609375 C 244.238281 317.734375 244.175781 317.886719 244.175781 318.0625 C 244.175781 318.242188 244.242188 318.390625 244.367188 318.515625 C 244.492188 318.640625 244.640625 318.703125 244.820312 318.703125 C 244.996094 318.703125 245.148438 318.640625 245.273438 318.511719 C 247.523438 316.742188 249.589844 314.730469 251.820312 312.925781 C 253.992188 311.164062 256.242188 309.507812 258.570312 307.957031 C 262.351562 305.429688 266.328125 303.214844 270.324219 301.050781 C 272.566406 301.09375 274.703125 300.570312 276.839844 300.011719 C 278.628906 299.542969 280.449219 299.175781 282.199219 298.59375 C 283.851562 298.046875 285.261719 298.316406 286.644531 299.285156 C 287.765625 300.066406 288.9375 300.765625 290.082031 301.523438 C 292.484375 303.097656 294.878906 304.691406 297.292969 306.246094 C 299.457031 307.589844 301.777344 308.574219 304.246094 309.203125 C 307.148438 309.992188 310.152344 310.292969 313.160156 310.457031 C 313.996094 310.535156 314.800781 310.40625 315.570312 310.074219 C 315.746094 309.996094 315.890625 309.882812 316.015625 309.734375 C 316.140625 309.589844 316.226562 309.425781 316.277344 309.242188 C 316.328125 309.058594 316.339844 308.871094 316.308594 308.683594 C 316.28125 308.496094 316.210938 308.320312 316.105469 308.164062 C 315.882812 307.8125 315.605469 307.507812 315.277344 307.25 C 314.730469 306.839844 314.164062 306.460938 313.578125 306.109375 C 311.546875 304.847656 309.480469 303.632812 307.476562 302.328125 C 304.617188 300.429688 302.011719 298.230469 299.664062 295.726562 C 297.9375 293.917969 295.910156 292.550781 293.585938 291.632812 C 293.292969 291.515625 292.902344 291.492188 292.800781 290.859375 C 295.949219 289.539062 299.003906 288.171875 301.957031 286.582031 C 302.582031 286.253906 303.242188 286.140625 303.9375 286.242188 C 305.785156 286.464844 307.582031 286.824219 309.289062 287.574219 C 311.414062 288.511719 313.519531 289.515625 315.675781 290.355469 C 321.625 292.617188 327.6875 294.5 333.871094 295.996094 C 336.941406 296.753906 340.058594 297.121094 343.226562 296.75 C 347.914062 296.195312 352.609375 295.890625 357.335938 296.125 C 359.941406 296.289062 362.53125 296.171875 365.105469 295.773438 C 365.722656 295.707031 366.3125 295.542969 366.875 295.28125 C 367.667969 294.855469 367.75 293.996094 367.039062 293.453125 Z M 324.160156 254.984375 C 326.273438 252.644531 328.5625 250.484375 330.746094 248.222656 C 335.046875 243.800781 340.324219 241.261719 346.242188 239.914062 C 348.042969 239.503906 349.855469 239.144531 351.664062 238.773438 C 352.589844 238.585938 353.527344 238.4375 354.414062 238.65625 C 354.6875 239.074219 354.523438 239.390625 354.363281 239.6875 C 353.5625 241.125 352.652344 242.492188 351.636719 243.789062 C 348.496094 247.847656 345.1875 251.777344 342.355469 256.074219 C 340.390625 259.050781 337.761719 261.289062 334.640625 262.988281 C 333.023438 263.878906 331.367188 264.6875 329.667969 265.414062 C 328.859375 265.753906 328.007812 265.992188 327.167969 266.277344 C 326.972656 265.691406 327.40625 265.625 327.628906 265.453125 C 329.613281 263.886719 331.734375 262.503906 333.703125 260.910156 C 338.285156 257.164062 342.3125 252.894531 345.78125 248.09375 C 347.105469 246.269531 348.589844 244.558594 350 242.792969 C 350.242188 242.488281 350.617188 242.242188 350.492188 241.667969 C 349.726562 241.5625 349.304688 242.144531 348.808594 242.550781 C 348.230469 243.035156 347.648438 243.511719 347.109375 244.039062 C 346.636719 244.507812 346.230469 245.042969 345.710938 245.644531 C 345.15625 244.359375 345.871094 243.015625 345.0625 241.960938 C 344.734375 241.933594 344.585938 242.105469 344.570312 242.417969 C 344.390625 244.898438 343.785156 247.269531 342.75 249.53125 C 341.996094 249.347656 342.570312 248.421875 341.769531 248.277344 C 341.105469 249.765625 340.804688 251.476562 339.726562 253.214844 C 339.628906 251.941406 340.085938 251.070312 340.15625 250.15625 C 340.230469 249.132812 340.402344 248.113281 340.386719 247.09375 C 340.371094 246.1875 340.617188 245.21875 339.976562 244.171875 C 339.5 244.839844 339.527344 245.335938 339.496094 245.796875 C 339.289062 248.761719 338.433594 251.570312 337.527344 254.375 C 337.148438 255.660156 336.429688 256.714844 335.375 257.539062 C 334.792969 257.980469 334.308594 258.5625 333.425781 258.976562 C 333.554688 257.574219 334.109375 256.46875 334.292969 255.292969 C 334.5 254.011719 334.746094 252.730469 334.855469 251.4375 C 334.949219 250.25 335.296875 249.03125 335 247.847656 C 334.542969 247.679688 334.453125 247.96875 334.390625 248.214844 C 333.894531 250.347656 333.390625 252.480469 332.933594 254.617188 C 332.453125 256.835938 331.664062 258.949219 330.832031 261.050781 C 330.769531 261.242188 330.632812 261.390625 330.269531 261.289062 C 330.320312 259.945312 331.328125 258.710938 331.109375 257.289062 C 330.515625 257.25 330.464844 257.636719 330.332031 257.921875 C 329.566406 259.527344 328.808594 261.140625 328.058594 262.753906 C 327.769531 263.367188 327.777344 263.371094 326.734375 264.027344 C 326.570312 263.410156 326.960938 262.96875 327.105469 262.488281 C 327.28125 261.902344 327.515625 261.328125 327.707031 260.738281 C 327.878906 260.214844 328.050781 259.695312 328.175781 259.160156 C 328.320312 258.566406 328.4375 257.960938 328.542969 257.355469 C 328.636719 256.816406 328.707031 256.273438 328.769531 255.722656 C 328.835938 255.109375 328.878906 254.496094 328.933594 253.882812 C 328.984375 253.339844 329.09375 252.792969 328.714844 252.320312 C 328.265625 252.367188 328.226562 252.71875 328.15625 253.046875 C 327.636719 255.597656 326.980469 258.113281 326.179688 260.589844 C 325.832031 261.664062 325.507812 262.761719 324.648438 264.054688 C 324.632812 262.71875 325.046875 261.84375 325.152344 260.925781 C 325.25 260.105469 325.667969 259.265625 325.046875 258.277344 C 324.515625 259.125 324.480469 259.964844 324.207031 260.714844 C 323.933594 261.464844 323.679688 262.273438 323.371094 263.03125 C 323.0625 263.792969 322.714844 264.542969 322.335938 265.269531 C 321.957031 265.996094 321.777344 266.792969 321.207031 267.367188 C 320.761719 267.246094 320.808594 266.996094 320.882812 266.722656 C 321.371094 264.871094 321.863281 263.019531 322.339844 261.164062 C 322.457031 260.714844 322.675781 260.246094 322.058594 259.800781 C 320.949219 262.019531 320.5625 264.5 319.347656 266.648438 C 318.894531 266.398438 319.167969 266.046875 319.214844 265.785156 C 319.402344 264.707031 319.636719 263.640625 319.871094 262.570312 C 320.554688 259.632812 322.140625 257.195312 324.148438 254.980469 Z M 279.824219 279.558594 C 280.390625 275.824219 281.320312 272.183594 282.609375 268.636719 C 283.46875 266.300781 284.910156 264.285156 286.472656 262.367188 C 287.757812 260.75 289.226562 259.324219 290.882812 258.089844 C 293.648438 256.078125 296.453125 254.128906 299.257812 252.171875 C 299.828125 251.796875 300.425781 251.460938 301.042969 251.164062 C 301.335938 251.015625 301.667969 250.882812 302.023438 251.082031 C 302.226562 251.71875 301.894531 252.285156 301.679688 252.835938 C 300.757812 255.195312 299.855469 257.566406 298.824219 259.878906 C 297.8125 262.132812 296.933594 264.429688 296.179688 266.78125 C 294.972656 270.5625 293.601562 274.289062 292.605469 278.140625 C 291.449219 282.59375 288.941406 286.207031 285.394531 289.109375 C 285.308594 289.183594 285.148438 289.164062 285.023438 289.1875 C 285 289.144531 284.945312 289.082031 284.960938 289.0625 C 287.421875 285.160156 289.148438 280.914062 290.753906 276.613281 C 291.207031 275.464844 291.578125 274.292969 291.875 273.09375 C 292.96875 268.332031 294.890625 263.863281 296.890625 259.429688 C 297.171875 258.804688 297.472656 258.191406 297.742188 257.5625 C 297.847656 257.320312 297.960938 257.050781 297.597656 256.726562 C 296.824219 257.285156 296.492188 258.191406 296 258.960938 C 295.511719 259.730469 295.109375 260.476562 294.695312 261.179688 C 294.066406 261.21875 294.109375 260.777344 294.003906 260.503906 C 293.761719 259.867188 293.636719 259.164062 292.917969 258.871094 C 292.566406 259 292.582031 259.25 292.65625 259.519531 C 292.972656 260.785156 293.195312 262.058594 292.984375 263.46875 C 292.332031 263.242188 292.59375 262.328125 291.976562 262.164062 C 291.878906 262.222656 291.691406 262.289062 291.6875 262.347656 C 291.671875 263.441406 291.714844 264.53125 291.820312 265.621094 C 291.984375 266.933594 291.8125 268.203125 291.304688 269.429688 C 291.160156 269.796875 291.058594 270.183594 290.898438 270.738281 C 290.394531 270.164062 290.460938 269.597656 290.3125 269.117188 C 290.152344 268.597656 290.046875 268.058594 289.890625 267.53125 C 289.710938 266.941406 289.519531 266.355469 289.304688 265.78125 C 289.109375 265.269531 288.859375 264.78125 288.65625 264.273438 C 288.457031 263.765625 288.230469 263.292969 287.765625 263.03125 C 287.300781 263.203125 287.453125 263.484375 287.539062 263.722656 C 288.863281 267.296875 289.257812 271.03125 289.429688 274.800781 C 289.488281 276.148438 288.953125 277.570312 288.023438 278.917969 C 287.433594 278.3125 287.695312 277.316406 287.027344 276.753906 C 286.65625 276.765625 286.621094 277 286.640625 277.300781 C 286.722656 278.730469 286.800781 280.164062 286.871094 281.597656 C 286.90625 281.988281 286.777344 282.320312 286.488281 282.589844 C 286.039062 282.273438 286.09375 281.789062 286.054688 281.367188 C 285.847656 278.964844 285.261719 276.644531 284.535156 274.359375 C 284.410156 273.992188 284.363281 273.527344 283.652344 273.539062 C 284.019531 275.746094 284.421875 277.9375 284.527344 280.148438 C 284.628906 282.304688 285.0625 284.464844 284.59375 286.597656 C 284.039062 286.644531 284.132812 286.28125 284.097656 286.058594 C 283.839844 284.292969 283.414062 282.566406 282.824219 280.882812 C 282.6875 280.546875 282.539062 280.261719 282.007812 280.289062 C 282.421875 282.925781 283.019531 285.550781 282.480469 288.472656 C 281.464844 283.265625 281.464844 283.265625 280.515625 282.566406 C 280.777344 285.402344 281.097656 288.15625 281.085938 290.988281 C 280.003906 290.515625 280 290.515625 279.226562 290.546875 C 279.710938 289.578125 279.480469 288.535156 279.484375 287.53125 C 279.515625 284.871094 279.398438 282.214844 279.824219 279.558594 Z M 279.261719 293.023438 C 278.949219 292.082031 279.601562 291.296875 279.230469 290.5625 C 279.636719 291.296875 280.152344 292.023438 279.257812 293.019531 Z M 274.144531 298.921875 C 274.90625 298.386719 275.734375 297.996094 276.632812 297.75 C 277.53125 297.507812 278.445312 297.425781 279.371094 297.503906 C 277.71875 298.261719 275.945312 298.648438 274.140625 298.921875 Z M 306.371094 303.664062 C 308.90625 304.90625 313.152344 307.554688 314.183594 308.523438 C 313.253906 308.949219 311.714844 308.933594 309.589844 308.441406 C 309.375 308.175781 309.671875 307.933594 309.605469 307.554688 C 308.875 307.128906 308.085938 307.558594 307.316406 307.585938 C 306.546875 307.609375 305.855469 307.671875 304.945312 307.730469 C 305.78125 306.800781 307.101562 307.082031 307.628906 306.046875 C 307.183594 305.636719 306.710938 305.84375 306.257812 305.9375 C 304.925781 306.246094 303.578125 306.449219 302.214844 306.539062 C 301.398438 306.566406 301.398438 306.566406 300.214844 305.757812 C 302.457031 305.046875 304.558594 304.675781 306.367188 303.664062 Z M 298.121094 296.375 C 299.699219 297.886719 301.167969 299.515625 302.902344 300.859375 C 303.554688 301.359375 304.210938 301.851562 304.847656 302.351562 C 305.054688 302.511719 305.332031 302.632812 305.265625 303.148438 C 304.351562 303.5625 303.289062 303.722656 302.238281 303.910156 C 300.953125 304.128906 299.667969 304.269531 298.382812 304.441406 C 297.679688 304.539062 297.03125 304.488281 296.558594 303.847656 C 296.699219 303.121094 297.738281 303.410156 297.847656 302.546875 C 296.609375 302.066406 295.089844 303.054688 293.742188 301.957031 C 294.757812 301.25 295.867188 301.078125 296.800781 300.558594 C 297.6875 300.074219 298.699219 299.777344 299.324219 298.898438 C 299.148438 298.378906 298.785156 298.558594 298.507812 298.695312 C 297.082031 299.378906 295.589844 299.871094 294.039062 300.171875 C 293.515625 300.289062 292.960938 300.335938 292.421875 300.421875 C 291.652344 300.546875 290.933594 300.449219 290.316406 299.894531 C 289.871094 299.492188 289.238281 299.300781 288.878906 298.632812 C 290.574219 297.347656 292.839844 296.96875 294.4375 295.300781 C 293.808594 294.917969 293.390625 295.242188 293.011719 295.410156 C 291.324219 296.171875 289.582031 296.777344 287.785156 297.222656 C 287.453125 297.300781 287.117188 297.378906 286.78125 297.429688 C 286.46875 297.472656 286.242188 297.351562 286.097656 297.074219 C 286.007812 296.554688 286.929688 296.519531 286.617188 295.824219 C 285.664062 295.636719 284.699219 296.367188 283.582031 295.957031 C 285.011719 294.851562 286.84375 294.625 288.125 293.460938 C 287.945312 292.945312 287.589844 293.0625 287.277344 293.183594 C 285.210938 293.90625 283.152344 294.636719 281.09375 295.386719 C 280.261719 295.691406 279.441406 296.039062 278.402344 295.605469 C 279.90625 294.496094 281.332031 293.480469 282.957031 292.765625 C 284.304688 292.203125 285.703125 291.949219 287.164062 292.003906 C 291.371094 292.050781 295.054688 293.4375 298.117188 296.371094 Z M 364.121094 294.433594 C 361.878906 294.722656 359.628906 294.800781 357.371094 294.664062 C 352.789062 294.433594 348.222656 294.597656 343.667969 295.148438 C 340.488281 295.511719 337.394531 295.171875 334.3125 294.503906 C 333.445312 294.316406 332.585938 294.082031 331.730469 293.84375 C 326.535156 292.390625 321.351562 290.890625 316.324219 288.902344 C 314.167969 288.050781 312.066406 287.050781 309.929688 286.136719 C 309.078125 285.773438 308.191406 285.445312 307.09375 285.015625 C 308.105469 284.367188 308.839844 284.191406 309.710938 284.746094 C 310.433594 285.214844 311.15625 285.730469 312.054688 286.023438 C 312.277344 284.875 310.957031 284.746094 310.9375 283.886719 C 311.957031 284.019531 311.957031 284.019531 313.414062 284.960938 C 314.21875 285.480469 315.023438 285.996094 315.820312 286.53125 C 316.617188 287.070312 317.253906 287.753906 318.203125 288.316406 C 317.878906 286.746094 317.421875 286.246094 313.746094 283.261719 C 313.910156 282.761719 314.242188 282.964844 314.515625 283.101562 C 316.027344 283.910156 317.429688 284.875 318.722656 286.003906 C 319.058594 286.289062 319.328125 286.746094 319.957031 286.652344 C 319.855469 285.640625 319.070312 285.121094 318.492188 284.488281 C 317.945312 283.886719 317.316406 283.355469 316.734375 282.800781 C 316.945312 282.339844 317.1875 282.59375 317.386719 282.722656 C 319.59375 284.109375 321.699219 285.617188 323.398438 287.628906 C 323.535156 287.832031 323.726562 287.910156 323.96875 287.871094 C 324.382812 287.5 323.996094 287.125 323.8125 286.859375 C 322.894531 285.574219 321.847656 284.40625 320.675781 283.351562 C 320.289062 282.980469 319.761719 282.734375 319.554688 282.058594 C 320.480469 281.875 321.417969 281.78125 322.363281 281.78125 C 322.882812 281.769531 323.273438 282.039062 323.65625 282.328125 C 324.535156 282.976562 325.398438 283.648438 326.277344 284.300781 C 326.59375 284.53125 326.867188 284.894531 327.449219 284.757812 C 327.359375 283.546875 326.074219 283.160156 325.671875 282.1875 C 325.957031 281.5625 326.300781 281.90625 326.609375 282.144531 C 329.105469 284.179688 331.425781 286.398438 333.398438 288.949219 C 333.566406 289.164062 333.742188 289.367188 333.929688 289.558594 C 333.96875 289.601562 334.054688 289.597656 334.113281 289.617188 C 334.578125 289.078125 334.132812 288.648438 333.890625 288.257812 C 332.777344 286.535156 331.519531 284.921875 330.121094 283.421875 C 329.761719 283.03125 329.257812 282.757812 329.152344 282.164062 C 329.433594 281.824219 329.644531 282.140625 329.804688 282.257812 C 332.558594 284.324219 334.875 286.839844 337.003906 289.511719 C 337.429688 290.046875 337.847656 290.585938 338.28125 291.113281 C 338.414062 291.277344 338.601562 291.351562 338.9375 291.179688 C 338.375 289.492188 337.230469 288.148438 336.203125 286.75 C 335.171875 285.347656 334.09375 284.085938 333.039062 282.761719 C 333.144531 282.65625 333.242188 282.484375 333.320312 282.492188 C 334.289062 282.609375 335.296875 282.628906 336.054688 283.367188 C 335.867188 283.351562 335.695312 283.402344 335.546875 283.519531 C 335.394531 283.636719 335.304688 283.792969 335.277344 283.980469 C 337.53125 286.949219 339.796875 289.917969 342.066406 292.890625 C 342.121094 292.960938 342.296875 292.929688 342.433594 292.949219 C 342.460938 292.902344 342.527344 292.84375 342.519531 292.804688 C 342.484375 292.539062 342.425781 292.277344 342.339844 292.027344 C 341.339844 289.683594 340.015625 287.542969 338.375 285.601562 C 337.957031 285.101562 337.378906 284.707031 337.234375 284.011719 C 338.0625 284.089844 338.402344 284.816406 338.855469 285.339844 C 340.605469 287.332031 342.199219 289.441406 343.640625 291.664062 C 343.9375 292.132812 344.058594 292.835938 344.773438 293.011719 C 344.804688 291.929688 344.839844 291.910156 344.527344 291.339844 C 343.714844 289.855469 342.878906 288.378906 342.023438 286.914062 C 341.824219 286.570312 341.554688 286.273438 341.503906 285.867188 C 342.234375 285.777344 342.433594 286.496094 342.894531 286.824219 C 343.304688 287.117188 343.519531 287.742188 344.199219 287.625 C 344.546875 286.984375 343.679688 286.703125 343.796875 286.140625 C 343.953125 285.855469 343.953125 285.855469 345.1875 286.488281 C 345.601562 286.914062 344.890625 287.152344 345.015625 287.582031 C 345.144531 288.007812 345.417969 288.285156 345.652344 288.617188 C 346.488281 289.78125 347.324219 290.941406 348.160156 292.097656 C 348.351562 292.359375 348.503906 292.675781 349.007812 292.6875 C 349.160156 291.535156 348.566406 290.695312 348.097656 289.835938 C 347.65625 289.023438 347.160156 288.238281 346.5 287.117188 C 348.359375 288.03125 348.980469 289.683594 350.234375 290.640625 C 351.03125 290.5 350.335938 289.773438 350.785156 289.4375 C 352.097656 290.402344 352.882812 291.902344 354.066406 292.964844 C 354.511719 292.894531 354.507812 292.632812 354.429688 292.347656 C 354.308594 291.96875 353.953125 291.660156 354.148438 291.171875 C 355.542969 291.367188 356.617188 292.597656 358.125 292.394531 C 358.175781 292.386719 358.214844 292.296875 358.28125 292.222656 C 358.167969 292.0625 358.035156 291.925781 357.882812 291.804688 C 352.671875 288.65625 347.390625 285.664062 341.714844 283.402344 C 335.371094 280.878906 328.808594 280.011719 322.03125 280.386719 C 318.75 280.570312 315.503906 281.023438 312.292969 281.738281 C 312.023438 281.796875 311.753906 281.792969 311.488281 281.734375 C 314.171875 280.5625 316.882812 279.511719 319.785156 279.046875 C 326.503906 277.980469 333.09375 278.246094 339.59375 280.507812 C 344.390625 282.175781 348.929688 284.375 353.207031 287.105469 C 354.820312 288.132812 356.425781 289.171875 358.019531 290.242188 C 359.785156 291.433594 361.6875 292.359375 363.578125 293.332031 C 363.980469 293.542969 364.511719 293.597656 364.722656 294.109375 C 364.679688 294.46875 364.351562 294.402344 364.117188 294.429688 Z M 336.304688 283.398438 C 336.722656 283.34375 337.074219 283.40625 337.179688 283.929688 C 336.761719 283.957031 336.589844 283.582031 336.304688 283.394531 Z M 341.003906 284.933594 C 341.253906 285.167969 341.5 285.40625 341.476562 285.789062 C 341.015625 285.667969 340.972656 285.320312 340.996094 284.9375 Z M 341.003906 284.933594"/></g></g></g><g clip-path="url(#e)"><g clip-path="url(#f)"><g clip-path="url(#g)"><path fill="#3E6913" d="M 330.359375 290.621094 C 329.160156 288.808594 327.898438 287.027344 326.328125 285.515625 C 325.449219 284.667969 324.480469 283.914062 323.539062 283.140625 C 323.167969 282.820312 322.742188 282.640625 322.257812 282.59375 C 322.019531 282.574219 321.765625 282.921875 321.816406 283.15625 C 321.914062 283.601562 322.242188 283.851562 322.546875 284.101562 C 325.292969 286.339844 327.789062 288.832031 330.039062 291.566406 C 330.191406 291.75 330.375 292.035156 330.722656 291.886719 C 330.988281 291.355469 330.589844 290.96875 330.359375 290.621094 Z M 330.359375 290.621094"/></g></g></g><g clip-path="url(#h)"><g clip-path="url(#i)"><g clip-path="url(#j)"><path fill="#3E6913" d="M 336.214844 254.851562 C 337.105469 252.765625 337.503906 250.566406 337.652344 248.316406 C 337.664062 248.109375 337.53125 247.9375 337.148438 247.984375 C 336.484375 250.324219 335.558594 252.644531 335.203125 255.175781 C 335.882812 255.472656 336.085938 255.148438 336.214844 254.851562 Z M 336.214844 254.851562"/></g></g></g><g clip-path="url(#k)"><g clip-path="url(#l)"><g clip-path="url(#m)"><path fill="#3E6913" d="M 288.59375 274.292969 C 288.378906 272.589844 287.941406 270.949219 287.285156 269.363281 C 287.210938 269.183594 286.976562 268.921875 286.59375 269.242188 C 287.03125 271.359375 287.039062 273.613281 288.007812 275.824219 C 288.253906 275.65625 288.433594 275.429688 288.539062 275.152344 C 288.648438 274.871094 288.664062 274.585938 288.59375 274.292969 Z M 288.59375 274.292969"/></g></g></g><g clip-path="url(#n)"><g clip-path="url(#o)"><g clip-path="url(#p)"><path fill="#3E6913" d="M 291.691406 298.566406 C 291.585938 298.726562 291.539062 298.90625 291.550781 299.101562 C 291.570312 299.207031 291.621094 299.289062 291.707031 299.351562 C 291.796875 299.414062 291.890625 299.4375 291.996094 299.417969 C 293.105469 299.320312 294.054688 298.789062 294.988281 298.238281 C 295.261719 298.082031 295.625 297.957031 295.558594 297.292969 C 294.34375 297.453125 293.261719 297.851562 292.171875 298.214844 C 291.976562 298.285156 291.816406 298.402344 291.691406 298.566406 Z M 291.691406 298.566406"/></g></g></g><g clip-path="url(#q)"><g clip-path="url(#r)"><g clip-path="url(#s)"><path fill="#3E6913" d="M 289.503906 365.707031 C 289.324219 365.308594 289.101562 364.933594 288.832031 364.585938 C 286.207031 361.253906 284.382812 357.4375 282.3125 353.769531 C 280.359375 350.3125 278.246094 346.96875 275.585938 343.992188 C 272.175781 340.171875 268.5 336.703125 263.800781 334.441406 C 260.316406 332.761719 256.769531 331.371094 252.921875 330.824219 C 251.5 330.621094 250.082031 330.394531 248.660156 330.175781 C 248.714844 329.804688 248.980469 329.714844 249.207031 329.65625 C 251.878906 328.878906 254.433594 327.792969 256.953125 326.621094 C 257.359375 326.449219 257.785156 326.339844 258.226562 326.296875 C 259.355469 326.15625 260.488281 326.160156 261.621094 326.300781 C 263.246094 326.503906 264.855469 326.800781 266.449219 327.1875 C 269.269531 327.871094 272.132812 328.25 275.035156 328.328125 C 278.925781 328.417969 282.714844 327.992188 286.222656 326.125 C 290.570312 323.808594 295.148438 321.972656 299.617188 319.933594 C 300.816406 319.363281 301.984375 318.734375 303.121094 318.046875 C 303.667969 317.726562 304.15625 317.332031 304.585938 316.867188 C 305.164062 316.234375 305.0625 315.410156 304.421875 314.859375 C 304.136719 314.609375 303.824219 314.40625 303.484375 314.242188 C 302.582031 313.785156 301.648438 313.414062 300.679688 313.128906 C 299.28125 312.753906 297.90625 312.300781 296.507812 311.917969 C 291.136719 310.445312 285.746094 310.007812 280.296875 311.640625 C 277.398438 312.511719 274.488281 313.339844 271.621094 314.300781 C 267.96875 315.511719 264.9375 317.542969 262.640625 320.617188 C 261.496094 322.15625 260.082031 323.386719 258.398438 324.308594 C 257.511719 324.796875 256.617188 325.261719 255.710938 325.707031 C 251.894531 327.570312 247.851562 328.789062 243.730469 329.765625 C 241.691406 330.242188 239.628906 330.414062 237.539062 330.277344 C 236.972656 330.238281 236.40625 330.238281 235.84375 330.195312 C 233.519531 330.019531 231.183594 329.964844 228.894531 329.488281 C 227.503906 329.203125 227.140625 329.007812 226.082031 327.9375 C 226.363281 327.503906 226.851562 327.566406 227.257812 327.460938 C 229.136719 326.980469 230.90625 326.25 232.574219 325.261719 C 234.242188 324.273438 235.738281 323.070312 237.058594 321.648438 C 239.691406 318.84375 242.5625 316.273438 245.335938 313.605469 C 246.757812 312.257812 248.246094 310.992188 249.796875 309.800781 C 251.789062 308.25 253.78125 306.695312 255.597656 304.933594 C 256.015625 304.550781 256.398438 304.132812 256.738281 303.679688 C 257.367188 302.792969 257.089844 301.96875 256.066406 301.582031 C 255.648438 301.445312 255.222656 301.34375 254.785156 301.28125 C 253.910156 301.121094 253.019531 301.199219 252.148438 301.292969 C 249.832031 301.535156 247.515625 301.796875 245.199219 302.074219 C 244.199219 302.195312 243.203125 302.359375 242.222656 302.574219 C 237.3125 303.648438 232.90625 305.671875 229.316406 309.3125 C 225.800781 312.878906 222.570312 316.640625 220.453125 321.238281 C 220.191406 321.8125 219.902344 322.371094 219.582031 322.914062 C 218.839844 324.164062 218.066406 325.382812 216.925781 326.332031 C 216.199219 326.988281 215.347656 327.351562 214.371094 327.421875 C 212.738281 327.527344 211.109375 327.703125 209.476562 327.8125 C 208.347656 327.890625 207.207031 327.898438 206.082031 327.96875 C 205.871094 327.976562 205.703125 328.066406 205.582031 328.242188 C 202.070312 328.054688 198.5625 328.140625 195.0625 328.496094 C 189.960938 328.984375 184.398438 329.660156 179.617188 331.558594 C 179.460938 331.605469 179.34375 331.703125 179.265625 331.84375 C 179.191406 331.988281 179.175781 332.136719 179.222656 332.292969 C 179.269531 332.449219 179.363281 332.566406 179.507812 332.644531 C 179.652344 332.71875 179.800781 332.734375 179.957031 332.6875 C 182.554688 332.242188 185.109375 331.511719 187.707031 331.027344 C 190.238281 330.554688 192.789062 330.199219 195.351562 329.960938 C 199.519531 329.570312 203.710938 329.519531 207.890625 329.515625 C 209.691406 330.53125 211.648438 331.042969 213.621094 331.527344 C 215.273438 331.929688 216.910156 332.429688 218.582031 332.726562 C 220.160156 333.007812 221.179688 333.84375 221.875 335.230469 C 222.441406 336.355469 223.085938 337.433594 223.675781 338.546875 C 224.929688 340.875 226.171875 343.21875 227.441406 345.53125 C 228.605469 347.566406 230.046875 349.378906 231.769531 350.96875 C 233.773438 352.878906 236.074219 354.4375 238.4375 355.890625 C 239.078125 356.316406 239.785156 356.566406 240.554688 356.632812 C 240.730469 356.644531 240.898438 356.617188 241.0625 356.554688 C 241.226562 356.492188 241.371094 356.394531 241.492188 356.269531 C 241.613281 356.144531 241.703125 355.996094 241.761719 355.832031 C 241.820312 355.664062 241.84375 355.496094 241.828125 355.320312 C 241.796875 354.9375 241.707031 354.570312 241.558594 354.21875 C 241.292969 353.648438 241.003906 353.09375 240.683594 352.550781 C 239.589844 350.636719 238.453125 348.75 237.402344 346.816406 C 235.921875 344.027344 234.777344 341.105469 233.976562 338.050781 C 233.371094 335.828125 232.332031 333.835938 230.851562 332.074219 C 230.664062 331.851562 230.359375 331.660156 230.554688 331.105469 C 233.683594 331.414062 236.753906 331.644531 239.84375 331.652344 C 240.492188 331.660156 241.078125 331.855469 241.597656 332.242188 C 242.992188 333.230469 244.289062 334.308594 245.339844 335.664062 C 246.648438 337.355469 247.914062 339.089844 249.292969 340.710938 C 253.113281 345.148438 257.195312 349.328125 261.542969 353.25 C 263.691406 355.203125 266.054688 356.863281 268.78125 357.953125 C 272.820312 359.554688 276.753906 361.367188 280.480469 363.625 C 282.511719 364.898438 284.660156 365.9375 286.921875 366.742188 C 287.449219 366.960938 287.996094 367.085938 288.566406 367.117188 C 289.394531 367.121094 289.839844 366.460938 289.503906 365.707031 Z M 271.675781 315.785156 C 274.414062 314.816406 277.210938 314.066406 279.96875 313.191406 C 285.394531 311.496094 290.777344 311.75 296.160156 313.25 C 297.796875 313.707031 299.421875 314.207031 301.046875 314.699219 C 301.878906 314.953125 302.699219 315.242188 303.324219 315.808594 C 303.359375 316.269531 303.09375 316.453125 302.828125 316.621094 C 301.550781 317.4375 300.214844 318.144531 298.824219 318.75 C 294.5 320.660156 290.097656 322.394531 285.921875 324.632812 C 283.027344 326.183594 279.917969 326.84375 276.648438 326.855469 C 274.945312 326.871094 273.25 326.796875 271.558594 326.640625 C 270.753906 326.5625 269.957031 326.382812 269.15625 326.246094 C 269.253906 325.6875 269.636719 325.824219 269.886719 325.78125 C 272.183594 325.382812 274.503906 325.191406 276.800781 324.761719 C 282.152344 323.734375 287.285156 322.039062 292.195312 319.671875 C 294.066406 318.773438 296.019531 318.039062 297.9375 317.222656 C 298.265625 317.085938 298.679688 317.050781 298.828125 316.53125 C 298.257812 316.113281 297.65625 316.394531 297.078125 316.511719 C 296.398438 316.648438 295.71875 316.777344 295.050781 316.96875 C 294.460938 317.144531 293.898438 317.398438 293.214844 317.65625 C 293.332031 316.375 294.496094 315.597656 294.308594 314.390625 C 294.050781 314.222656 293.859375 314.296875 293.703125 314.546875 C 292.472656 316.476562 290.945312 318.132812 289.113281 319.511719 C 288.585938 319.03125 289.453125 318.535156 288.871094 318.0625 C 287.679688 318.976562 286.6875 320.234375 285.050781 321.167969 C 285.53125 320.09375 286.28125 319.589844 286.738281 318.878906 C 287.246094 318.082031 287.835938 317.332031 288.269531 316.5 C 288.652344 315.757812 289.277344 315.082031 289.21875 313.957031 C 288.542969 314.289062 288.347656 314.699219 288.117188 315.058594 C 286.648438 317.371094 284.722656 319.269531 282.757812 321.144531 C 281.890625 322.019531 280.847656 322.558594 279.628906 322.761719 C 278.96875 322.867188 278.320312 323.125 277.421875 323.074219 C 278.144531 321.996094 279.074219 321.34375 279.742188 320.46875 C 280.46875 319.523438 281.230469 318.59375 281.886719 317.597656 C 282.484375 316.675781 283.296875 315.839844 283.578125 314.75 C 283.285156 314.417969 283.082031 314.613281 282.925781 314.785156 C 281.585938 316.292969 280.246094 317.796875 278.9375 319.328125 C 277.574219 320.914062 276.007812 322.28125 274.414062 323.617188 C 274.277344 323.746094 274.101562 323.808594 273.851562 323.566406 C 274.484375 322.5 275.839844 321.941406 276.289062 320.691406 C 275.824219 320.402344 275.613281 320.695312 275.378906 320.863281 C 274.058594 321.832031 272.738281 322.804688 271.421875 323.78125 C 270.917969 324.15625 270.921875 324.160156 269.792969 324.234375 C 269.929688 323.660156 270.441406 323.476562 270.765625 323.152344 C 271.167969 322.753906 271.609375 322.390625 272.023438 321.996094 C 272.390625 321.648438 272.757812 321.300781 273.089844 320.925781 C 273.46875 320.507812 273.832031 320.066406 274.183594 319.625 C 274.496094 319.226562 274.792969 318.820312 275.082031 318.402344 C 275.40625 317.9375 275.707031 317.457031 276.023438 316.984375 C 276.300781 316.566406 276.628906 316.171875 276.53125 315.621094 C 276.144531 315.464844 275.960938 315.734375 275.761719 315.964844 C 274.21875 317.804688 272.585938 319.550781 270.851562 321.207031 C 270.097656 321.925781 269.351562 322.671875 268.089844 323.34375 C 268.664062 322.253906 269.382812 321.726562 269.871094 321.03125 C 270.3125 320.410156 271.015625 319.914062 270.949219 318.839844 C 270.144531 319.292969 269.75 319.957031 269.199219 320.445312 C 268.648438 320.933594 268.085938 321.476562 267.503906 321.957031 C 266.921875 322.4375 266.3125 322.894531 265.6875 323.3125 C 265.058594 323.734375 264.566406 324.304688 263.851562 324.519531 C 263.542969 324.226562 263.691406 324.042969 263.871094 323.855469 C 265.078125 322.566406 266.292969 321.285156 267.492188 319.992188 C 267.78125 319.679688 268.164062 319.394531 267.859375 318.761719 C 265.988281 320.074219 264.589844 321.914062 262.664062 323.125 C 262.40625 322.722656 262.78125 322.558594 262.933594 322.363281 C 263.558594 321.574219 264.21875 320.8125 264.875 320.050781 C 266.71875 317.972656 269.070312 316.691406 271.667969 315.777344 Z M 225.007812 316.269531 C 227.109375 313.496094 229.457031 310.957031 232.054688 308.644531 C 233.777344 307.132812 235.828125 306.128906 237.933594 305.261719 C 239.683594 304.515625 241.5 304.003906 243.378906 303.730469 C 246.5 303.3125 249.628906 302.960938 252.753906 302.605469 C 253.382812 302.550781 254.011719 302.539062 254.640625 302.570312 C 254.941406 302.578125 255.269531 302.613281 255.46875 302.933594 C 255.355469 303.539062 254.835938 303.847656 254.421875 304.203125 C 252.640625 305.710938 250.871094 307.234375 249.019531 308.65625 C 247.214844 310.035156 245.492188 311.511719 243.851562 313.085938 C 241.21875 315.621094 238.472656 318.039062 235.976562 320.71875 C 233.085938 323.820312 229.472656 325.648438 225.328125 326.445312 C 225.226562 326.46875 225.105469 326.382812 224.996094 326.34375 C 224.996094 326.300781 224.980469 326.226562 224.996094 326.21875 C 228.703125 324.136719 231.960938 321.453125 235.148438 318.671875 C 236.019531 317.941406 236.835938 317.152344 237.601562 316.3125 C 240.574219 312.9375 244.089844 310.160156 247.652344 307.445312 C 248.15625 307.0625 248.667969 306.695312 249.164062 306.304688 C 249.355469 306.15625 249.566406 305.988281 249.410156 305.566406 C 248.542969 305.679688 247.875 306.265625 247.140625 306.675781 C 246.40625 307.085938 245.75 307.511719 245.109375 307.902344 C 244.582031 307.65625 244.8125 307.320312 244.847656 307.050781 C 244.929688 306.429688 245.136719 305.804688 244.683594 305.253906 C 244.339844 305.203125 244.246094 305.414062 244.1875 305.664062 C 243.890625 306.828125 243.511719 307.957031 242.722656 309.003906 C 242.292969 308.535156 242.90625 307.914062 242.480469 307.507812 C 242.371094 307.511719 242.191406 307.484375 242.164062 307.53125 C 241.671875 308.410156 241.226562 309.3125 240.832031 310.238281 C 240.390625 311.375 239.695312 312.328125 238.746094 313.09375 C 238.46875 313.332031 238.214844 313.597656 237.84375 313.976562 C 237.683594 313.292969 237.988281 312.863281 238.082031 312.410156 C 238.179688 311.917969 238.332031 311.433594 238.433594 310.941406 C 238.546875 310.386719 238.652344 309.828125 238.726562 309.265625 C 238.796875 308.769531 238.804688 308.261719 238.867188 307.761719 C 238.925781 307.265625 238.953125 306.78125 238.6875 306.363281 C 238.238281 306.300781 238.238281 306.597656 238.203125 306.828125 C 237.703125 310.300781 236.386719 313.5 234.871094 316.625 C 234.328125 317.742188 233.273438 318.660156 231.929688 319.34375 C 231.714844 318.59375 232.367188 317.902344 232.070312 317.15625 C 231.765625 317 231.632812 317.175781 231.515625 317.425781 C 230.957031 318.625 230.390625 319.816406 229.820312 321.007812 C 229.675781 321.339844 229.425781 321.554688 229.074219 321.644531 C 228.851562 321.191406 229.105469 320.820312 229.261719 320.464844 C 230.148438 318.429688 230.6875 316.292969 231.105469 314.125 C 231.164062 313.773438 231.332031 313.375 230.75 313.074219 C 230.078125 315.023438 229.445312 316.972656 228.558594 318.808594 C 227.695312 320.597656 227.097656 322.539062 225.78125 324.0625 C 225.3125 323.855469 225.550781 323.601562 225.617188 323.410156 C 226.183594 321.863281 226.597656 320.28125 226.855469 318.660156 C 226.894531 318.328125 226.902344 318.03125 226.457031 317.820312 C 225.636719 320.136719 224.96875 322.523438 223.25 324.652344 C 224.710938 319.992188 224.710938 319.992188 224.25 319.011719 C 223.21875 321.421875 222.269531 323.792969 221.019531 326.078125 C 220.351562 325.226562 220.347656 325.222656 219.707031 324.910156 C 220.523438 324.335938 220.792969 323.390625 221.238281 322.578125 C 222.429688 320.441406 223.5 318.234375 225.007812 316.269531 Z M 218.648438 326.929688 C 218.808594 326.03125 219.683594 325.679688 219.703125 324.921875 C 219.710938 325.695312 219.808594 326.507812 218.644531 326.925781 Z M 211.917969 329.464844 C 213.675781 329.253906 215.292969 329.636719 216.773438 330.605469 C 215.101562 330.496094 213.496094 330.03125 211.914062 329.464844 Z M 235.921875 347.414062 C 237.425781 349.53125 239.703125 353.535156 240.113281 354.769531 C 239.171875 354.710938 237.933594 354.023438 236.429688 352.691406 C 236.375 352.382812 236.71875 352.316406 236.832031 351.980469 C 236.429688 351.316406 235.601562 351.320312 234.96875 351.003906 C 234.335938 350.6875 233.746094 350.433594 232.984375 350.085938 C 234.066406 349.695312 235.015625 350.503906 235.894531 349.894531 C 235.714844 349.367188 235.238281 349.328125 234.832031 349.207031 C 233.617188 348.875 232.441406 348.445312 231.296875 347.921875 C 230.621094 347.589844 230.621094 347.589844 230.019531 346.414062 C 232.144531 346.820312 234.007812 347.4375 235.917969 347.414062 Z M 232.445312 337.898438 C 233.058594 339.816406 233.527344 341.777344 234.347656 343.625 C 234.652344 344.316406 234.96875 345 235.265625 345.6875 C 235.359375 345.90625 235.535156 346.125 235.25 346.511719 C 234.332031 346.449219 233.402344 346.113281 232.46875 345.804688 C 231.332031 345.417969 230.230469 344.96875 229.113281 344.546875 C 228.503906 344.320312 228 343.992188 227.898438 343.265625 C 228.332031 342.742188 229.046875 343.429688 229.515625 342.777344 C 228.722656 341.847656 227.058594 341.984375 226.449219 340.503906 C 227.582031 340.378906 228.554688 340.722656 229.535156 340.710938 C 230.46875 340.707031 231.417969 340.910156 232.308594 340.472656 C 232.394531 339.972656 232.019531 339.960938 231.738281 339.949219 C 230.28125 339.875 228.859375 339.621094 227.472656 339.1875 C 227 339.050781 226.527344 338.847656 226.054688 338.683594 C 225.375 338.445312 224.835938 338.050781 224.582031 337.335938 C 224.394531 336.8125 223.96875 336.382812 223.972656 335.683594 C 225.90625 335.382812 227.90625 336.070312 229.933594 335.417969 C 229.589844 334.832031 229.109375 334.910156 228.730469 334.878906 C 227.027344 334.761719 225.355469 334.488281 223.703125 334.058594 C 223.402344 333.980469 223.097656 333.898438 222.804688 333.789062 C 222.53125 333.6875 222.398438 333.492188 222.40625 333.203125 C 222.558594 332.742188 223.320312 333.117188 223.371094 332.417969 C 222.6875 331.847656 221.582031 332.019531 220.859375 331.195312 C 222.5 330.925781 224.082031 331.546875 225.628906 331.164062 C 225.710938 330.667969 225.371094 330.605469 225.066406 330.566406 C 223.074219 330.25 221.089844 329.941406 219.09375 329.644531 C 218.289062 329.527344 217.46875 329.449219 216.820312 328.644531 C 218.523438 328.40625 220.125 328.207031 221.753906 328.335938 C 223.089844 328.472656 224.335938 328.882812 225.488281 329.5625 C 228.878906 331.441406 231.25 334.179688 232.441406 337.898438 Z M 286.710938 365.226562 C 284.769531 364.476562 282.914062 363.554688 281.144531 362.457031 C 277.539062 360.265625 273.769531 358.394531 269.839844 356.851562 C 267.109375 355.75 264.757812 354.121094 262.554688 352.230469 C 261.933594 351.699219 261.34375 351.132812 260.753906 350.566406 C 257.1875 347.113281 253.648438 343.628906 250.453125 339.820312 C 249.082031 338.1875 247.816406 336.457031 246.492188 334.78125 C 245.960938 334.113281 245.386719 333.460938 244.6875 332.628906 C 245.789062 332.550781 246.460938 332.726562 246.921875 333.558594 C 247.304688 334.253906 247.664062 334.988281 248.261719 335.617188 C 248.941406 334.785156 247.929688 334.105469 248.292969 333.402344 C 249.058594 333.957031 249.0625 333.953125 249.828125 335.355469 C 250.25 336.125 250.675781 336.898438 251.085938 337.679688 C 251.496094 338.464844 251.707031 339.296875 252.234375 340.167969 C 252.65625 338.753906 252.507812 338.148438 250.839844 334.125 C 251.191406 333.789062 251.371094 334.097656 251.53125 334.328125 C 252.402344 335.644531 253.113281 337.042969 253.667969 338.523438 C 253.8125 338.902344 253.832031 339.390625 254.382812 339.585938 C 254.742188 338.726562 254.332031 337.957031 254.144531 337.195312 C 253.964844 336.464844 253.691406 335.761719 253.460938 335.058594 C 253.835938 334.777344 253.917969 335.089844 254.027344 335.28125 C 255.199219 337.371094 256.246094 339.515625 256.734375 341.886719 C 256.757812 342.109375 256.878906 342.257812 257.09375 342.328125 C 257.589844 342.214844 257.441406 341.738281 257.410156 341.441406 C 257.230469 340.003906 256.894531 338.597656 256.410156 337.230469 C 256.257812 336.757812 255.941406 336.332031 256.070312 335.691406 C 256.902344 335.949219 257.699219 336.285156 258.464844 336.699219 C 258.890625 336.914062 259.089844 337.304688 259.273438 337.707031 C 259.695312 338.617188 260.101562 339.539062 260.527344 340.449219 C 260.679688 340.777344 260.742188 341.191406 261.277344 341.332031 C 261.734375 340.3125 260.863281 339.4375 260.964844 338.472656 C 261.46875 338.09375 261.597656 338.519531 261.742188 338.851562 C 262.871094 341.589844 263.773438 344.40625 264.25 347.335938 C 264.292969 347.578125 264.347656 347.820312 264.414062 348.058594 C 264.425781 348.109375 264.496094 348.144531 264.539062 348.1875 C 265.148438 347.953125 264.976562 347.410156 264.953125 346.988281 C 264.808594 345.105469 264.5 343.25 264.023438 341.421875 C 263.90625 340.949219 263.617188 340.507812 263.789062 339.980469 C 264.167969 339.828125 264.203125 340.175781 264.277344 340.34375 C 265.601562 343.21875 266.371094 346.269531 266.921875 349.367188 C 267.03125 349.988281 267.132812 350.605469 267.253906 351.222656 C 267.289062 351.414062 267.40625 351.554688 267.753906 351.566406 C 268.042969 349.953125 267.703125 348.363281 267.484375 346.777344 C 267.269531 345.195312 266.949219 343.699219 266.675781 342.167969 C 266.804688 342.128906 266.960938 342.03125 267.019531 342.070312 C 267.753906 342.589844 268.5625 343.046875 268.851562 343.976562 C 268.703125 343.878906 268.542969 343.847656 268.371094 343.875 C 268.199219 343.90625 268.058594 343.992188 267.953125 344.132812 C 268.476562 347.523438 269.003906 350.917969 269.539062 354.320312 C 269.550781 354.402344 269.707031 354.453125 269.808594 354.527344 C 269.851562 354.503906 269.929688 354.484375 269.941406 354.449219 C 270.03125 354.21875 270.097656 353.980469 270.136719 353.738281 C 270.355469 351.40625 270.226562 349.09375 269.746094 346.800781 C 269.628906 346.214844 269.332031 345.640625 269.519531 345.011719 C 270.160156 345.4375 270.117188 346.179688 270.25 346.800781 C 270.792969 349.179688 271.15625 351.582031 271.347656 354.015625 C 271.382812 354.527344 271.175781 355.148438 271.675781 355.601562 C 272.175781 354.742188 272.210938 354.742188 272.207031 354.140625 C 272.203125 352.582031 272.175781 351.023438 272.125 349.460938 C 272.113281 349.097656 272.027344 348.734375 272.164062 348.386719 C 272.792969 348.632812 272.640625 349.300781 272.867188 349.769531 C 273.074219 350.1875 272.972656 350.785156 273.574219 350.988281 C 274.136719 350.625 273.554688 350.015625 273.902344 349.609375 C 274.152344 349.449219 274.152344 349.449219 274.871094 350.5 C 275.019531 351.03125 274.339844 350.910156 274.253906 351.3125 C 274.171875 351.714844 274.269531 352.058594 274.316406 352.429688 C 274.476562 353.738281 274.648438 355.042969 274.816406 356.347656 C 274.855469 356.640625 274.84375 356.964844 275.246094 357.195312 C 275.875 356.328125 275.761719 355.390625 275.761719 354.488281 C 275.757812 353.636719 275.703125 352.78125 275.660156 351.585938 C 276.761719 353.140625 276.542969 354.75 277.132812 356.074219 C 277.84375 356.308594 277.597656 355.417969 278.109375 355.34375 C 278.746094 356.699219 278.726562 358.257812 279.21875 359.632812 C 279.609375 359.773438 279.71875 359.558594 279.78125 359.292969 C 279.851562 358.933594 279.695312 358.527344 280.070312 358.21875 C 281.113281 358.988281 281.441406 360.453125 282.753906 360.949219 C 282.796875 360.964844 282.867188 360.910156 282.953125 360.878906 C 282.929688 360.699219 282.882812 360.527344 282.816406 360.363281 C 279.980469 355.535156 277.019531 350.796875 273.414062 346.480469 C 269.390625 341.660156 264.457031 338.085938 258.804688 335.421875 C 256.070312 334.136719 253.246094 333.078125 250.335938 332.253906 C 250.089844 332.183594 249.875 332.0625 249.683594 331.894531 C 252.367188 332.125 255.023438 332.460938 257.574219 333.355469 C 263.484375 335.433594 268.699219 338.53125 272.96875 343.210938 C 276.121094 346.660156 278.828125 350.429688 281.09375 354.515625 C 281.945312 356.050781 282.789062 357.59375 283.609375 359.160156 C 284.515625 360.898438 285.652344 362.480469 286.753906 364.097656 C 286.988281 364.445312 287.390625 364.722656 287.339844 365.226562 C 287.144531 365.5 286.910156 365.300781 286.707031 365.222656 Z M 269.039062 344.113281 C 269.402344 344.25 269.65625 344.457031 269.511719 344.921875 C 269.164062 344.765625 269.1875 344.382812 269.039062 344.105469 Z M 272.167969 347.410156 C 272.269531 347.710938 272.359375 348.011719 272.175781 348.308594 C 271.855469 348.011719 271.972656 347.710938 272.160156 347.410156 Z M 272.167969 347.410156"/></g></g></g><g clip-path="url(#t)"><g clip-path="url(#u)"><g clip-path="url(#v)"><path fill="#3E6913" d="M 261.058594 347.355469 C 260.882812 345.363281 260.644531 343.371094 260.035156 341.457031 C 259.699219 340.386719 259.242188 339.351562 258.820312 338.3125 C 258.660156 337.890625 258.394531 337.558594 258.023438 337.308594 C 257.839844 337.1875 257.480469 337.359375 257.417969 337.570312 C 257.300781 337.972656 257.457031 338.320312 257.597656 338.65625 C 258.835938 341.671875 259.765625 344.78125 260.382812 347.984375 C 260.429688 348.195312 260.449219 348.507812 260.796875 348.539062 C 261.246094 348.226562 261.089844 347.738281 261.058594 347.355469 Z M 261.058594 347.355469"/></g></g></g><g clip-path="url(#w)"><g clip-path="url(#x)"><g clip-path="url(#y)"><path fill="#3E6913" d="M 281.488281 320.957031 C 283.125 319.65625 284.410156 318.050781 285.519531 316.292969 C 285.621094 316.132812 285.589844 315.933594 285.257812 315.804688 C 283.695312 317.40625 281.929688 318.878906 280.527344 320.773438 C 280.949219 321.3125 281.253906 321.140625 281.488281 320.957031 Z M 281.488281 320.957031"/></g></g></g><g clip-path="url(#z)"><g clip-path="url(#A)"><g clip-path="url(#B)"><path fill="#3E6913" d="M 234.417969 315.847656 C 234.992188 314.375 235.359375 312.855469 235.523438 311.28125 C 235.539062 311.105469 235.464844 310.789062 235.015625 310.882812 C 234.441406 312.789062 233.460938 314.617188 233.273438 316.828125 C 233.546875 316.800781 233.789062 316.699219 234 316.519531 C 234.207031 316.339844 234.347656 316.117188 234.417969 315.847656 Z M 234.417969 315.847656"/></g></g></g><g clip-path="url(#C)"><g clip-path="url(#D)"><g clip-path="url(#E)"><path fill="#3E6913" d="M 226.277344 336.859375 C 226.121094 336.945312 226.003906 337.066406 225.929688 337.230469 C 225.898438 337.324219 225.902344 337.414062 225.945312 337.503906 C 225.988281 337.59375 226.058594 337.652344 226.152344 337.683594 C 227.089844 338.089844 228.09375 338.074219 229.089844 338.039062 C 229.378906 338.03125 229.730469 338.089844 229.964844 337.523438 C 228.910156 337.121094 227.863281 336.96875 226.820312 336.789062 C 226.632812 336.757812 226.449219 336.78125 226.277344 336.859375 Z M 226.277344 336.859375"/></g></g></g><g clip-path="url(#F)"><path fill="#3E6913" d="M 187.433594 122.15625 C 160.03125 122.15625 137.734375 144.488281 137.734375 171.941406 C 137.734375 181.546875 140.472656 190.871094 145.648438 198.902344 C 150.503906 206.433594 157.265625 212.488281 165.238281 216.484375 L 165.238281 219.925781 L 162.148438 219.925781 C 161.25 219.925781 160.519531 220.65625 160.519531 221.554688 C 160.519531 222.457031 161.25 223.1875 162.148438 223.1875 L 165.238281 223.1875 L 165.238281 253.007812 C 165.238281 253.90625 165.96875 254.636719 166.867188 254.636719 L 175.789062 254.636719 L 175.789062 260.964844 C 175.789062 261.863281 176.519531 262.59375 177.417969 262.59375 L 197.449219 262.59375 C 198.347656 262.59375 199.078125 261.863281 199.078125 260.964844 L 199.078125 254.636719 L 208 254.636719 C 208.898438 254.636719 209.625 253.90625 209.625 253.007812 L 209.625 244.207031 L 212.714844 244.207031 C 213.617188 244.207031 214.34375 243.480469 214.34375 242.578125 C 214.34375 241.679688 213.617188 240.949219 212.714844 240.949219 L 209.625 240.949219 L 209.625 234 L 212.714844 234 C 213.617188 234 214.34375 233.269531 214.34375 232.367188 C 214.34375 231.46875 213.617188 230.738281 212.714844 230.738281 L 209.625 230.738281 L 209.625 223.1875 L 212.714844 223.1875 C 213.617188 223.1875 214.34375 222.457031 214.34375 221.554688 C 214.34375 220.65625 213.617188 219.925781 212.714844 219.925781 L 209.625 219.925781 L 209.625 216.484375 C 217.601562 212.488281 224.359375 206.433594 229.214844 198.902344 C 234.390625 190.867188 237.128906 181.546875 237.128906 171.941406 C 237.128906 144.488281 214.835938 122.15625 187.433594 122.15625 Z M 195.824219 259.335938 L 179.042969 259.335938 L 179.042969 254.636719 L 195.824219 254.636719 Z M 206.371094 230.738281 L 182.890625 230.738281 C 181.992188 230.738281 181.265625 231.46875 181.265625 232.367188 C 181.265625 233.269531 181.992188 234 182.890625 234 L 206.371094 234 L 206.371094 240.949219 L 182.890625 240.949219 C 181.992188 240.949219 181.265625 241.679688 181.265625 242.578125 C 181.265625 243.480469 181.992188 244.207031 182.890625 244.207031 L 206.371094 244.207031 L 206.371094 251.375 L 197.464844 251.375 C 197.460938 251.375 197.457031 251.375 197.449219 251.375 C 197.445312 251.375 197.441406 251.375 197.4375 251.375 L 177.429688 251.375 C 177.425781 251.375 177.421875 251.375 177.414062 251.375 C 177.410156 251.375 177.40625 251.375 177.402344 251.375 L 168.492188 251.375 L 168.492188 223.183594 L 206.371094 223.183594 Z M 185.859375 178.722656 C 185.859375 177.648438 186.730469 176.777344 187.796875 176.777344 C 188.867188 176.777344 189.738281 177.652344 189.738281 178.722656 C 189.738281 179.792969 188.867188 180.664062 187.796875 180.664062 C 186.730469 180.664062 185.859375 179.792969 185.859375 178.722656 Z M 207.300781 214 C 207.269531 214.011719 207.242188 214.035156 207.214844 214.050781 C 207.160156 214.082031 207.105469 214.113281 207.054688 214.148438 C 207.011719 214.175781 206.976562 214.210938 206.9375 214.246094 C 206.894531 214.28125 206.855469 214.316406 206.820312 214.351562 C 206.78125 214.390625 206.75 214.433594 206.71875 214.476562 C 206.6875 214.515625 206.652344 214.558594 206.625 214.601562 C 206.597656 214.644531 206.574219 214.691406 206.550781 214.738281 C 206.527344 214.785156 206.503906 214.832031 206.484375 214.882812 C 206.464844 214.933594 206.453125 214.984375 206.4375 215.035156 C 206.421875 215.082031 206.410156 215.132812 206.398438 215.183594 C 206.390625 215.242188 206.386719 215.304688 206.382812 215.367188 C 206.378906 215.402344 206.371094 215.433594 206.371094 215.472656 L 206.371094 219.925781 L 189.425781 219.925781 L 189.425781 183.660156 C 191.496094 182.976562 192.992188 181.023438 192.992188 178.722656 C 192.992188 175.851562 190.664062 173.519531 187.796875 173.519531 C 184.933594 173.519531 182.605469 175.851562 182.605469 178.722656 C 182.605469 181.019531 184.101562 182.972656 186.171875 183.660156 L 186.171875 219.925781 L 168.492188 219.925781 L 168.492188 215.472656 C 168.492188 215.429688 168.484375 215.390625 168.480469 215.351562 C 168.476562 215.296875 168.476562 215.242188 168.464844 215.1875 C 168.457031 215.132812 168.441406 215.078125 168.421875 215.023438 C 168.410156 214.976562 168.398438 214.933594 168.382812 214.886719 C 168.359375 214.832031 168.335938 214.78125 168.308594 214.730469 C 168.285156 214.6875 168.265625 214.644531 168.242188 214.605469 C 168.210938 214.558594 168.175781 214.515625 168.140625 214.46875 C 168.113281 214.429688 168.082031 214.390625 168.046875 214.355469 C 168.007812 214.3125 167.964844 214.277344 167.921875 214.242188 C 167.886719 214.210938 167.851562 214.175781 167.8125 214.148438 C 167.761719 214.113281 167.703125 214.082031 167.648438 214.050781 C 167.617188 214.03125 167.59375 214.011719 167.5625 214 C 151.421875 206.332031 140.992188 189.824219 140.992188 171.941406 C 140.992188 146.285156 161.824219 125.417969 187.433594 125.417969 C 213.039062 125.417969 233.875 146.285156 233.875 171.941406 C 233.875 189.824219 223.441406 206.332031 207.300781 214 Z M 207.300781 214"/></g><path fill="#3E6913" d="M 187.433594 113.851562 C 188.332031 113.851562 189.058594 113.121094 189.058594 112.222656 L 189.058594 104.628906 C 189.058594 103.730469 188.332031 103 187.433594 103 C 186.535156 103 185.804688 103.730469 185.804688 104.628906 L 185.804688 112.222656 C 185.804688 113.121094 186.535156 113.851562 187.433594 113.851562 Z M 187.433594 113.851562"/><path fill="#3E6913" d="M 156.6875 120.910156 C 156.988281 121.433594 157.535156 121.726562 158.101562 121.726562 C 158.375 121.726562 158.65625 121.65625 158.910156 121.507812 C 159.691406 121.058594 159.957031 120.058594 159.507812 119.28125 L 155.71875 112.707031 C 155.269531 111.925781 154.273438 111.660156 153.496094 112.109375 C 152.71875 112.558594 152.449219 113.554688 152.898438 114.335938 Z M 156.6875 120.910156"/><path fill="#3E6913" d="M 129.246094 139.222656 L 135.8125 143.019531 C 136.066406 143.167969 136.347656 143.238281 136.625 143.238281 C 137.1875 143.238281 137.734375 142.945312 138.035156 142.421875 C 138.484375 141.640625 138.21875 140.644531 137.4375 140.195312 L 130.875 136.398438 C 130.097656 135.949219 129.101562 136.214844 128.652344 136.996094 C 128.203125 137.773438 128.46875 138.773438 129.246094 139.222656 Z M 129.246094 139.222656"/><g clip-path="url(#G)"><path fill="#3E6913" d="M 130.390625 170.992188 C 130.390625 170.09375 129.664062 169.363281 128.765625 169.363281 L 121.183594 169.363281 C 120.285156 169.363281 119.554688 170.09375 119.554688 170.992188 C 119.554688 171.890625 120.285156 172.621094 121.183594 172.621094 L 128.765625 172.621094 C 129.664062 172.621094 130.390625 171.890625 130.390625 170.992188 Z M 130.390625 170.992188"/></g><path fill="#3E6913" d="M 135.8125 198.964844 L 129.246094 202.757812 C 128.46875 203.207031 128.199219 204.207031 128.648438 204.984375 C 128.949219 205.507812 129.496094 205.800781 130.0625 205.800781 C 130.335938 205.800781 130.617188 205.730469 130.871094 205.582031 L 137.4375 201.789062 C 138.214844 201.339844 138.484375 200.339844 138.035156 199.5625 C 137.585938 198.78125 136.589844 198.515625 135.8125 198.964844 Z M 135.8125 198.964844"/><path fill="#3E6913" d="M 245.617188 202.761719 L 239.054688 198.964844 C 238.273438 198.515625 237.28125 198.78125 236.832031 199.5625 C 236.378906 200.34375 236.648438 201.339844 237.425781 201.789062 L 243.988281 205.585938 C 244.246094 205.734375 244.523438 205.804688 244.800781 205.804688 C 245.363281 205.804688 245.910156 205.511719 246.210938 204.988281 C 246.660156 204.207031 246.394531 203.210938 245.617188 202.761719 Z M 245.617188 202.761719"/><g clip-path="url(#H)"><path fill="#3E6913" d="M 253.679688 169.363281 L 246.101562 169.363281 C 245.203125 169.363281 244.472656 170.09375 244.472656 170.996094 C 244.472656 171.894531 245.203125 172.625 246.101562 172.625 L 253.679688 172.625 C 254.578125 172.625 255.304688 171.894531 255.304688 170.996094 C 255.304688 170.09375 254.578125 169.363281 253.679688 169.363281 Z M 253.679688 169.363281"/></g><path fill="#3E6913" d="M 238.242188 143.238281 C 238.519531 143.238281 238.796875 143.167969 239.054688 143.019531 L 245.617188 139.222656 C 246.394531 138.773438 246.660156 137.777344 246.210938 136.996094 C 245.761719 136.21875 244.769531 135.949219 243.988281 136.398438 L 237.425781 140.195312 C 236.648438 140.644531 236.382812 141.640625 236.832031 142.421875 C 237.132812 142.945312 237.679688 143.238281 238.242188 143.238281 Z M 238.242188 143.238281"/><path fill="#3E6913" d="M 215.953125 121.507812 C 216.210938 121.65625 216.488281 121.726562 216.765625 121.726562 C 217.328125 121.726562 217.875 121.433594 218.175781 120.910156 L 221.964844 114.335938 C 222.417969 113.558594 222.148438 112.558594 221.371094 112.109375 C 220.59375 111.660156 219.597656 111.925781 219.148438 112.707031 L 215.359375 119.28125 C 214.910156 120.058594 215.175781 121.058594 215.953125 121.507812 Z M 215.953125 121.507812"/><path fill="#3E6913" d="M 221.078125 155.945312 C 218.214844 155.945312 215.886719 158.277344 215.886719 161.148438 C 215.886719 163.445312 217.382812 165.398438 219.453125 166.085938 L 219.453125 174.648438 L 209.050781 185.066406 C 209.027344 185.089844 209.007812 185.121094 208.984375 185.148438 C 208.9375 185.203125 208.890625 185.253906 208.851562 185.308594 C 208.8125 185.367188 208.785156 185.429688 208.753906 185.492188 C 208.738281 185.523438 208.71875 185.554688 208.703125 185.589844 C 208.671875 185.664062 208.648438 185.746094 208.628906 185.824219 C 208.625 185.847656 208.613281 185.871094 208.609375 185.894531 C 208.585938 186.003906 208.574219 186.113281 208.578125 186.226562 L 208.578125 199.101562 L 201.285156 202.347656 L 201.285156 180.816406 L 205.878906 176.210938 C 205.957031 176.136719 206.023438 176.050781 206.085938 175.960938 C 206.105469 175.929688 206.117188 175.898438 206.136719 175.867188 C 206.171875 175.808594 206.207031 175.746094 206.234375 175.679688 C 206.25 175.640625 206.257812 175.597656 206.273438 175.558594 C 206.292969 175.496094 206.3125 175.4375 206.328125 175.375 C 206.339844 175.3125 206.339844 175.246094 206.347656 175.183594 C 206.347656 175.140625 206.359375 175.101562 206.359375 175.058594 L 206.359375 172.707031 C 208.425781 172.019531 209.925781 170.070312 209.925781 167.769531 C 209.925781 164.898438 207.59375 162.566406 204.730469 162.566406 C 201.867188 162.566406 199.535156 164.902344 199.535156 167.769531 C 199.535156 170.070312 201.035156 172.023438 203.105469 172.707031 L 203.105469 174.382812 L 198.507812 178.988281 C 198.429688 179.0625 198.363281 179.148438 198.304688 179.238281 C 198.277344 179.277344 198.257812 179.316406 198.238281 179.359375 C 198.207031 179.410156 198.175781 179.460938 198.152344 179.519531 C 198.132812 179.570312 198.121094 179.625 198.105469 179.679688 C 198.089844 179.726562 198.070312 179.773438 198.0625 179.820312 C 198.039062 179.925781 198.03125 180.03125 198.03125 180.140625 L 198.03125 204.855469 C 198.03125 205.40625 198.308594 205.921875 198.769531 206.222656 C 199.039062 206.398438 199.347656 206.484375 199.65625 206.484375 C 199.882812 206.484375 200.105469 206.441406 200.316406 206.34375 L 210.863281 201.652344 C 211.453125 201.390625 211.832031 200.804688 211.832031 200.160156 L 211.832031 186.890625 L 222.230469 176.472656 C 222.285156 176.421875 222.324219 176.363281 222.371094 176.304688 C 222.386719 176.277344 222.410156 176.257812 222.429688 176.230469 C 222.472656 176.164062 222.507812 176.09375 222.542969 176.023438 C 222.554688 176 222.570312 175.976562 222.578125 175.949219 C 222.613281 175.867188 222.636719 175.785156 222.65625 175.699219 C 222.660156 175.679688 222.667969 175.664062 222.671875 175.644531 C 222.695312 175.535156 222.707031 175.425781 222.707031 175.3125 L 222.707031 166.085938 C 224.773438 165.398438 226.273438 163.445312 226.273438 161.148438 C 226.273438 158.277344 223.945312 155.945312 221.078125 155.945312 Z M 202.789062 167.769531 C 202.789062 166.699219 203.660156 165.824219 204.730469 165.824219 C 205.800781 165.824219 206.671875 166.699219 206.671875 167.769531 C 206.671875 168.839844 205.800781 169.710938 204.730469 169.710938 C 203.660156 169.710938 202.789062 168.839844 202.789062 167.769531 Z M 221.078125 163.089844 C 220.011719 163.089844 219.140625 162.21875 219.140625 161.148438 C 219.140625 160.074219 220.011719 159.203125 221.078125 159.203125 C 222.148438 159.203125 223.019531 160.074219 223.019531 161.148438 C 223.019531 162.21875 222.148438 163.089844 221.078125 163.089844 Z M 221.078125 163.089844"/><path fill="#3E6913" d="M 177.5 179.707031 C 177.484375 179.640625 177.46875 179.578125 177.441406 179.515625 C 177.421875 179.46875 177.394531 179.425781 177.371094 179.382812 C 177.347656 179.332031 177.324219 179.28125 177.292969 179.234375 C 177.242188 179.160156 177.183594 179.089844 177.121094 179.023438 C 177.109375 179.011719 177.101562 179 177.089844 178.988281 L 172.496094 174.382812 L 172.496094 172.707031 C 174.5625 172.019531 176.0625 170.070312 176.0625 167.769531 C 176.0625 164.898438 173.730469 162.566406 170.867188 162.566406 C 168.003906 162.566406 165.671875 164.898438 165.671875 167.769531 C 165.671875 170.070312 167.171875 172.019531 169.242188 172.707031 L 169.242188 175.058594 C 169.242188 175.078125 169.246094 175.09375 169.246094 175.113281 C 169.25 175.203125 169.253906 175.289062 169.273438 175.375 C 169.28125 175.429688 169.300781 175.480469 169.316406 175.53125 C 169.332031 175.582031 169.34375 175.632812 169.363281 175.679688 C 169.386719 175.738281 169.421875 175.792969 169.449219 175.84375 C 169.472656 175.882812 169.488281 175.925781 169.515625 175.960938 C 169.574219 176.050781 169.640625 176.136719 169.71875 176.210938 L 174.3125 180.816406 L 174.3125 202.347656 L 167.023438 199.101562 L 167.023438 186.226562 C 167.023438 186.113281 167.011719 186.003906 166.988281 185.894531 C 166.984375 185.871094 166.976562 185.851562 166.96875 185.828125 C 166.949219 185.746094 166.929688 185.667969 166.894531 185.589844 C 166.882812 185.558594 166.863281 185.527344 166.847656 185.496094 C 166.816406 185.433594 166.785156 185.371094 166.746094 185.308594 C 166.714844 185.261719 166.671875 185.21875 166.632812 185.171875 C 166.605469 185.136719 166.578125 185.097656 166.546875 185.0625 L 156.148438 174.648438 L 156.148438 166.085938 C 158.214844 165.398438 159.714844 163.445312 159.714844 161.148438 C 159.714844 158.277344 157.382812 155.945312 154.519531 155.945312 C 151.65625 155.945312 149.324219 158.277344 149.324219 161.148438 C 149.324219 163.445312 150.824219 165.398438 152.890625 166.085938 L 152.890625 175.316406 C 152.890625 175.425781 152.902344 175.535156 152.925781 175.644531 C 152.933594 175.675781 152.945312 175.707031 152.953125 175.738281 C 152.972656 175.808594 152.988281 175.878906 153.019531 175.949219 C 153.035156 175.984375 153.054688 176.019531 153.074219 176.054688 C 153.105469 176.113281 153.132812 176.171875 153.167969 176.226562 C 153.199219 176.273438 153.238281 176.316406 153.277344 176.359375 C 153.308594 176.398438 153.332031 176.4375 153.367188 176.472656 L 163.765625 186.890625 L 163.765625 200.160156 C 163.765625 200.804688 164.144531 201.390625 164.734375 201.652344 L 175.28125 206.34375 C 175.492188 206.4375 175.714844 206.484375 175.941406 206.484375 C 176.25 206.484375 176.558594 206.398438 176.828125 206.222656 C 177.289062 205.921875 177.566406 205.40625 177.566406 204.855469 L 177.566406 180.144531 C 177.570312 180.035156 177.558594 179.925781 177.535156 179.820312 C 177.527344 179.78125 177.511719 179.746094 177.5 179.707031 Z M 170.867188 169.710938 C 169.796875 169.710938 168.929688 168.839844 168.929688 167.769531 C 168.929688 166.699219 169.796875 165.824219 170.867188 165.824219 C 171.9375 165.824219 172.808594 166.699219 172.808594 167.769531 C 172.808594 168.839844 171.9375 169.710938 170.867188 169.710938 Z M 154.519531 163.089844 C 153.449219 163.089844 152.578125 162.21875 152.578125 161.148438 C 152.578125 160.074219 153.449219 159.203125 154.519531 159.203125 C 155.589844 159.203125 156.457031 160.074219 156.457031 161.148438 C 156.457031 162.21875 155.589844 163.089844 154.519531 163.089844 Z M 154.519531 163.089844"/><g><g><g><path d="M 1.78125 1.234375 L 14.453125 -17.125 L 20.71875 -12.796875 C 22.875 -11.316406 24.382812 -9.710938 25.25 -7.984375 C 26.125 -6.265625 26.421875 -4.484375 26.140625 -2.640625 C 25.859375 -0.804688 25.082031 1.03125 23.8125 2.875 C 22.53125 4.726562 21.078125 6.109375 19.453125 7.015625 C 17.835938 7.929688 16.070312 8.285156 14.15625 8.078125 C 12.238281 7.878906 10.203125 7.039062 8.046875 5.5625 Z M 7.125 0.671875 L 9.875 2.578125 C 11.414062 3.640625 12.804688 4.222656 14.046875 4.328125 C 15.296875 4.441406 16.429688 4.164062 17.453125 3.5 C 18.484375 2.832031 19.457031 1.832031 20.375 0.5 C 21.28125 -0.800781 21.867188 -2.054688 22.140625 -3.265625 C 22.410156 -4.484375 22.269531 -5.648438 21.71875 -6.765625 C 21.175781 -7.890625 20.132812 -8.984375 18.59375 -10.046875 L 15.84375 -11.953125 Z M 7.125 0.671875" transform="translate(110.932 281.02)"/></g></g></g><g><g><g><path d="M 11.890625 4.296875 C 9.765625 3.609375 8.054688 2.535156 6.765625 1.078125 C 5.484375 -0.367188 4.664062 -2.0625 4.3125 -4 C 3.957031 -5.9375 4.132812 -7.984375 4.84375 -10.140625 C 5.550781 -12.296875 6.625 -14.050781 8.0625 -15.40625 C 9.5 -16.769531 11.164062 -17.648438 13.0625 -18.046875 C 14.957031 -18.441406 16.96875 -18.296875 19.09375 -17.609375 C 21.1875 -16.910156 22.875 -15.835938 24.15625 -14.390625 C 25.445312 -12.953125 26.265625 -11.257812 26.609375 -9.3125 C 26.960938 -7.375 26.785156 -5.328125 26.078125 -3.171875 C 25.367188 -1.015625 24.296875 0.738281 22.859375 2.09375 C 21.429688 3.445312 19.769531 4.328125 17.875 4.734375 C 15.976562 5.140625 13.984375 4.992188 11.890625 4.296875 Z M 13.03125 0.828125 C 15.039062 1.492188 16.863281 1.359375 18.5 0.421875 C 20.144531 -0.515625 21.347656 -2.144531 22.109375 -4.46875 C 22.867188 -6.789062 22.867188 -8.816406 22.109375 -10.546875 C 21.347656 -12.273438 19.960938 -13.472656 17.953125 -14.140625 C 15.929688 -14.796875 14.09375 -14.65625 12.4375 -13.71875 C 10.78125 -12.789062 9.570312 -11.164062 8.8125 -8.84375 C 8.050781 -6.519531 8.054688 -4.488281 8.828125 -2.75 C 9.609375 -1.019531 11.007812 0.171875 13.03125 0.828125 Z M 13.03125 0.828125" transform="translate(138.642 298.6)"/></g></g></g><g><g><g><path d="M 2.171875 0.09375 L 3.15625 -22.203125 L 11.328125 -21.84375 C 13.109375 -21.757812 14.566406 -21.390625 15.703125 -20.734375 C 16.835938 -20.078125 17.664062 -19.21875 18.1875 -18.15625 C 18.71875 -17.101562 18.957031 -15.945312 18.90625 -14.6875 C 18.84375 -13.332031 18.429688 -12.109375 17.671875 -11.015625 C 16.910156 -9.921875 15.757812 -9.15625 14.21875 -8.71875 L 18.4375 0.8125 L 13.75 0.609375 L 10 -8.359375 L 6.640625 -8.5 L 6.25 0.28125 Z M 6.765625 -11.5 L 10.609375 -11.328125 C 11.960938 -11.273438 12.972656 -11.5625 13.640625 -12.1875 C 14.316406 -12.8125 14.679688 -13.664062 14.734375 -14.75 C 14.773438 -15.8125 14.492188 -16.675781 13.890625 -17.34375 C 13.296875 -18.019531 12.300781 -18.382812 10.90625 -18.4375 L 7.09375 -18.609375 Z M 6.765625 -11.5" transform="translate(172.538 307.925)"/></g></g></g><g><g><g><path d="M 12.375 -2.515625 C 10.195312 -2.003906 8.1875 -2.03125 6.34375 -2.59375 C 4.5 -3.164062 2.921875 -4.1875 1.609375 -5.65625 C 0.296875 -7.132812 -0.613281 -8.976562 -1.125 -11.1875 C -1.644531 -13.40625 -1.640625 -15.460938 -1.109375 -17.359375 C -0.585938 -19.265625 0.367188 -20.878906 1.765625 -22.203125 C 3.171875 -23.535156 4.960938 -24.457031 7.140625 -24.96875 C 9.285156 -25.46875 11.285156 -25.429688 13.140625 -24.859375 C 15.003906 -24.296875 16.585938 -23.273438 17.890625 -21.796875 C 19.191406 -20.328125 20.101562 -18.484375 20.625 -16.265625 C 21.132812 -14.054688 21.128906 -12 20.609375 -10.09375 C 20.097656 -8.195312 19.132812 -6.582031 17.71875 -5.25 C 16.300781 -3.925781 14.519531 -3.015625 12.375 -2.515625 Z M 11.546875 -6.078125 C 13.617188 -6.554688 15.109375 -7.617188 16.015625 -9.265625 C 16.929688 -10.910156 17.113281 -12.925781 16.5625 -15.3125 C 16 -17.695312 14.941406 -19.425781 13.390625 -20.5 C 11.847656 -21.582031 10.039062 -21.882812 7.96875 -21.40625 C 5.894531 -20.914062 4.394531 -19.84375 3.46875 -18.1875 C 2.550781 -16.539062 2.375 -14.523438 2.9375 -12.140625 C 3.488281 -9.753906 4.539062 -8.023438 6.09375 -6.953125 C 7.65625 -5.878906 9.472656 -5.585938 11.546875 -6.078125 Z M 11.546875 -6.078125" transform="translate(202.411 308.239)"/></g></g></g><g><g><g><path d="M 5.671875 -3.546875 L -11.1875 -19.328125 L -7.484375 -21.640625 L 5.359375 -8.734375 L -0.09375 -26.28125 L 3.71875 -28.671875 L 17.046875 -16.0625 L 11.015625 -33.25 L 14.734375 -35.578125 L 21.46875 -13.46875 L 17.375 -10.890625 L 4.8125 -22.546875 L 9.75 -6.109375 Z M 5.671875 -3.546875" transform="translate(237.136 298.896)"/></g></g></g><g><g><g><path d="M 4.171875 -3.390625 C 3.453125 -2.773438 2.679688 -2.394531 1.859375 -2.25 C 1.046875 -2.113281 0.238281 -2.207031 -0.5625 -2.53125 C -1.363281 -2.851562 -2.097656 -3.398438 -2.765625 -4.171875 C -3.453125 -4.960938 -3.894531 -5.789062 -4.09375 -6.65625 C -4.300781 -7.519531 -4.269531 -8.363281 -4 -9.1875 C -3.726562 -10.019531 -3.203125 -10.773438 -2.421875 -11.453125 C -1.523438 -12.234375 -0.597656 -12.660156 0.359375 -12.734375 C 1.316406 -12.804688 2.210938 -12.550781 3.046875 -11.96875 L 1.484375 -10.609375 C 1.046875 -10.859375 0.585938 -10.945312 0.109375 -10.875 C -0.359375 -10.8125 -0.832031 -10.570312 -1.3125 -10.15625 C -2.0625 -9.5 -2.4375 -8.75 -2.4375 -7.90625 C -2.4375 -7.070312 -2.070312 -6.234375 -1.34375 -5.390625 C -0.613281 -4.554688 0.148438 -4.085938 0.953125 -3.984375 C 1.765625 -3.878906 2.519531 -4.132812 3.21875 -4.75 C 3.914062 -5.34375 4.273438 -5.976562 4.296875 -6.65625 C 4.328125 -7.34375 4.117188 -8.015625 3.671875 -8.671875 L 1.75 -7.015625 L 0.84375 -8.046875 L 4.171875 -10.921875 L 7.796875 -6.75 L 6.5 -5.640625 L 5.515625 -6.546875 C 5.585938 -5.972656 5.523438 -5.425781 5.328125 -4.90625 C 5.128906 -4.394531 4.742188 -3.890625 4.171875 -3.390625 Z M 4.171875 -3.390625" transform="translate(114.714 107.662)"/></g></g></g><g><g><g><path d="M 4.296875 -2.265625 C 3.648438 -1.890625 3 -1.679688 2.34375 -1.640625 C 1.6875 -1.609375 1.054688 -1.757812 0.453125 -2.09375 C -0.140625 -2.4375 -0.664062 -3.003906 -1.125 -3.796875 L -4.203125 -9.1875 L -2.59375 -10.109375 L 0.5 -4.703125 C 0.882812 -4.015625 1.332031 -3.597656 1.84375 -3.453125 C 2.363281 -3.316406 2.914062 -3.414062 3.5 -3.75 C 4.070312 -4.082031 4.425781 -4.503906 4.5625 -5.015625 C 4.707031 -5.535156 4.585938 -6.140625 4.203125 -6.828125 L 1.109375 -12.234375 L 2.71875 -13.15625 L 5.796875 -7.765625 C 6.253906 -6.972656 6.472656 -6.226562 6.453125 -5.53125 C 6.429688 -4.832031 6.222656 -4.203125 5.828125 -3.640625 C 5.441406 -3.085938 4.929688 -2.628906 4.296875 -2.265625 Z M 4.296875 -2.265625" transform="translate(131.808 94.281)"/></g></g></g><g><g><g><path d="M 0.921875 -0.34375 L -2.609375 -9.765625 L -0.890625 -10.40625 L 2.640625 -0.984375 Z M 0.921875 -0.34375" transform="translate(150.137 85.045)"/></g></g></g><g><g><g><path d="M 0.96875 -0.203125 L -1.09375 -10.046875 L 0.6875 -10.421875 L 2.453125 -1.984375 L 6.828125 -2.890625 L 7.125 -1.484375 Z M 0.96875 -0.203125" transform="translate(164.015 80.546)"/></g></g></g><g><g><g><path d="M 0.984375 -0.03125 L 0.734375 -10.09375 L 2.5625 -10.125 L 2.671875 -5.9375 L 7.1875 -6.0625 L 7.078125 -10.25 L 8.921875 -10.296875 L 9.171875 -0.234375 L 7.328125 -0.1875 L 7.21875 -4.578125 L 2.703125 -4.453125 L 2.8125 -0.0625 Z M 0.984375 -0.03125" transform="translate(182.362 77.594)"/></g></g></g><g><g><g><path d="M 0.96875 0.15625 L 2.546875 -9.78125 L 9.03125 -8.75 L 8.796875 -7.28125 L 4.125 -8.03125 L 3.703125 -5.3125 L 7.9375 -4.625 L 7.703125 -3.203125 L 3.46875 -3.890625 L 3.015625 -1.03125 L 7.6875 -0.28125 L 7.453125 1.1875 Z M 0.96875 0.15625" transform="translate(203.148 78.134)"/></g></g></g><g><g><g><path d="M 0.921875 0.328125 L 4.234375 -9.171875 L 7.71875 -7.96875 C 8.476562 -7.695312 9.0625 -7.347656 9.46875 -6.921875 C 9.875 -6.492188 10.117188 -6.015625 10.203125 -5.484375 C 10.296875 -4.960938 10.253906 -4.4375 10.078125 -3.90625 C 9.867188 -3.320312 9.53125 -2.84375 9.0625 -2.46875 C 8.59375 -2.101562 8 -1.925781 7.28125 -1.9375 L 7.859375 2.75 L 5.859375 2.046875 L 5.40625 -2.3125 L 3.96875 -2.828125 L 2.65625 0.921875 Z M 4.40625 -4.09375 L 6.0625 -3.515625 C 6.632812 -3.304688 7.101562 -3.296875 7.46875 -3.484375 C 7.84375 -3.671875 8.109375 -3.992188 8.265625 -4.453125 C 8.421875 -4.910156 8.410156 -5.320312 8.234375 -5.6875 C 8.066406 -6.0625 7.691406 -6.351562 7.109375 -6.5625 L 5.46875 -7.140625 Z M 4.40625 -4.09375" transform="translate(221.728 82.027)"/></g></g></g><g><g><g><path d="M 0.84375 0.5 L 5.953125 -8.171875 L 7.828125 -7.0625 L 7.359375 0.0625 L 13.3125 -3.828125 L 15.203125 -2.71875 L 10.09375 5.953125 L 8.5 5.015625 L 12.015625 -0.953125 L 6.828125 2.359375 L 5.578125 1.625 L 5.9375 -4.546875 L 2.421875 1.421875 Z M 0.84375 0.5" transform="translate(239.89 89.273)"/></g></g></g><g><g><g><path d="M 0.734375 0.65625 L 7.421875 -6.859375 L 12.328125 -2.5 L 11.34375 -1.390625 L 7.8125 -4.53125 L 5.984375 -2.484375 L 9.1875 0.359375 L 8.234375 1.4375 L 5.03125 -1.40625 L 3.09375 0.765625 L 6.625 3.90625 L 5.640625 5.015625 Z M 0.734375 0.65625" transform="translate(259.284 102.148)"/></g></g></g></svg>