<svg xmlns="http://www.w3.org/2000/svg" width="75" viewBox="0 0 75 75" height="75" version="1.0"><defs><clipPath id="a"><path d="M 65 65 L 67.5 65 L 67.5 67.5 L 65 67.5 Z M 65 65"/></clipPath><clipPath id="b"><path d="M 7.5 9 L 10 9 L 10 66 L 7.5 66 Z M 7.5 9"/></clipPath><clipPath id="c"><path d="M 7.5 65 L 10 65 L 10 67.5 L 7.5 67.5 Z M 7.5 65"/></clipPath><clipPath id="d"><path d="M 65 9 L 67.5 9 L 67.5 66 L 65 66 Z M 65 9"/></clipPath><clipPath id="e"><path d="M 9 65 L 66 65 L 66 67.5 L 9 67.5 Z M 9 65"/></clipPath><clipPath id="f"><path d="M 65 7.5 L 67.5 7.5 L 67.5 10 L 65 10 Z M 65 7.5"/></clipPath><clipPath id="g"><path d="M 7.5 7.5 L 10 7.5 L 10 10 L 7.5 10 Z M 7.5 7.5"/></clipPath><clipPath id="h"><path d="M 9 7.5 L 66 7.5 L 66 10 L 9 10 Z M 9 7.5"/></clipPath></defs><g clip-path="url(#a)"><path fill="#3E6913" d="M 65.71875 65.71875 L 67.5 65.71875 L 67.5 67.5 L 65.71875 67.5 Z M 65.71875 65.71875"/></g><g clip-path="url(#b)"><path fill="#3E6913" d="M 7.5 9.300781 L 9.300781 9.300781 L 9.300781 65.71875 L 7.5 65.71875 Z M 7.5 9.300781"/></g><g clip-path="url(#c)"><path fill="#3E6913" d="M 7.5 65.71875 L 9.300781 65.71875 L 9.300781 67.5 L 7.5 67.5 Z M 7.5 65.71875"/></g><g clip-path="url(#d)"><path fill="#3E6913" d="M 65.71875 9.300781 L 67.5 9.300781 L 67.5 65.71875 L 65.71875 65.71875 Z M 65.71875 9.300781"/></g><g clip-path="url(#e)"><path fill="#3E6913" d="M 9.300781 65.71875 L 65.71875 65.71875 L 65.71875 67.5 L 9.300781 67.5 Z M 9.300781 65.71875"/></g><g clip-path="url(#f)"><path fill="#3E6913" d="M 65.71875 7.5 L 67.5 7.5 L 67.5 9.300781 L 65.71875 9.300781 Z M 65.71875 7.5"/></g><g clip-path="url(#g)"><path fill="#3E6913" d="M 7.5 7.5 L 9.300781 7.5 L 9.300781 9.300781 L 7.5 9.300781 Z M 7.5 7.5"/></g><g clip-path="url(#h)"><path fill="#3E6913" d="M 9.300781 7.5 L 65.71875 7.5 L 65.71875 9.300781 L 9.300781 9.300781 Z M 9.300781 7.5"/></g><g fill="#3E6913"><g><g><path d="M 13.78125 -0.359375 C 14.9375 -0.359375 15.671875 -0.566406 15.984375 -0.984375 C 16.304688 -1.410156 16.46875 -2.128906 16.46875 -3.140625 L 16.46875 -10 L 14.203125 -10 L 14.203125 -10.78125 L 24.390625 -10.78125 L 24.390625 -10 L 23.015625 -10 L 23.015625 -0.03125 L 22.484375 -0.03125 C 22.054688 -0.625 21.453125 -0.921875 20.671875 -0.921875 C 20.347656 -0.921875 19.363281 -0.707031 17.71875 -0.28125 C 16.082031 0.144531 14.6875 0.359375 13.53125 0.359375 C 9.695312 0.359375 6.722656 -0.675781 4.609375 -2.75 C 2.503906 -4.820312 1.453125 -7.9375 1.453125 -12.09375 C 1.453125 -16.257812 2.550781 -19.472656 4.75 -21.734375 C 6.957031 -23.992188 9.921875 -25.125 13.640625 -25.125 C 15.078125 -25.125 16.519531 -24.941406 17.96875 -24.578125 C 19.414062 -24.210938 20.257812 -24.03125 20.5 -24.03125 C 20.738281 -24.03125 20.914062 -24.082031 21.03125 -24.1875 C 21.144531 -24.300781 21.273438 -24.484375 21.421875 -24.734375 L 21.8125 -24.734375 L 22.09375 -17.078125 L 21.453125 -17.078125 C 20.296875 -19.359375 19.132812 -21.148438 17.96875 -22.453125 C 16.800781 -23.765625 15.5 -24.421875 14.0625 -24.421875 C 10.457031 -24.421875 8.65625 -20.898438 8.65625 -13.859375 L 8.65625 -11.0625 C 8.65625 -7.53125 9.097656 -4.863281 9.984375 -3.0625 C 10.867188 -1.257812 12.132812 -0.359375 13.78125 -0.359375 Z M 13.78125 -0.359375" transform="translate(10.937 51)"/></g></g></g><g fill="#3E6913"><g><g><path d="M 25.234375 -12.796875 C 25.234375 -7.941406 23.867188 -4.5625 21.140625 -2.65625 C 18.617188 -0.882812 15.15625 0 10.75 0 L 0.75 0 L 0.75 -0.671875 L 3.078125 -0.671875 L 3.078125 -24.0625 L 0.75 -24.0625 L 0.75 -24.734375 L 11.65625 -24.734375 C 16.1875 -24.734375 19.582031 -23.804688 21.84375 -21.953125 C 24.101562 -20.109375 25.234375 -17.054688 25.234375 -12.796875 Z M 9.96875 -0.671875 L 11.3125 -0.671875 C 13.6875 -0.671875 15.382812 -1.507812 16.40625 -3.1875 C 17.4375 -4.875 17.953125 -7.695312 17.953125 -11.65625 L 17.953125 -13.71875 C 17.953125 -19.019531 16.941406 -22.210938 14.921875 -23.296875 C 13.953125 -23.804688 12.582031 -24.0625 10.8125 -24.0625 L 9.96875 -24.0625 Z M 9.96875 -0.671875" transform="translate(36.482 51)"/></g></g></g></svg>